<?xml version="1.0" encoding="UTF-8"?>
<svg width="249px" height="146px" viewBox="0 0 249 146" version="1.1" xmlns="http://www.w3.org/2000/svg" xmlns:xlink="http://www.w3.org/1999/xlink">
    <title>04. Logos/BPoR/RGB/Landscape</title>
    <defs>
        <polygon id="path-1" points="-3.36475729e-15 0 113.217875 0 113.217875 108.478777 -3.36475729e-15 108.478777"></polygon>
    </defs>
    <g id="04.-Logos/BPoR/RGB/Landscape" stroke="none" stroke-width="1" fill="none" fill-rule="evenodd">
        <g id="BPoR-colour-CMYK">
            <path d="M94.9822614,97.8166284 C95.4124895,97.8166284 95.7392785,97.8752659 95.9599928,97.9938587 C96.181366,98.1124514 96.3842914,98.3127414 96.5661336,98.593411 L101.484439,106.080567 C101.667599,106.361896 101.89029,106.577339 102.154488,106.727557 C102.418686,106.879092 102.739546,106.954201 103.117725,106.954201 L107.031945,106.954201 L101.176098,98.3180122 C100.776177,97.73559 100.303123,97.2882317 99.7523258,96.9746198 C100.572592,96.7163511 101.302597,96.3704555 101.944315,95.9402273 C102.586034,95.5086815 103.124972,95.0066388 103.562448,94.4367347 C103.998606,93.8655128 104.33396,93.2277473 104.563898,92.5273912 C104.796471,91.8263762 104.91177,91.082536 104.91177,90.2952118 C104.91177,89.3036446 104.742446,88.3944334 104.403139,87.5708725 C104.063832,86.7453351 103.529505,86.0370728 102.802136,85.4434501 C102.074109,84.8504863 101.141179,84.3899511 100.004006,84.0605268 C98.8661743,83.7311024 97.4990633,83.5670491 95.9039907,83.5670491 L88.7712948,83.5670491 L88.7712948,106.954201 L93.1216727,106.954201 L93.1216727,97.8166284 L94.9822614,97.8166284 Z M93.1216727,86.9304716 L95.9039907,86.9304716 C97.5102638,86.9304716 98.7047564,87.2500132 99.4861509,87.8864611 C100.268863,88.52225 100.658902,89.4327789 100.658902,90.6193654 C100.658902,91.2123292 100.562051,91.7578559 100.36769,92.2526513 C100.173989,92.7474466 99.8794836,93.177016 99.4861509,93.5387239 C99.0921594,93.9004318 98.5907756,94.1824191 97.9819994,94.3879798 C97.3725644,94.5915641 96.6583724,94.6956622 95.8394235,94.6956622 L93.1216727,94.6956622 L93.1216727,86.9304716 Z M109.812945,83.5670491 L109.812945,106.954201 L124.563908,106.954201 L124.563908,103.476797 L114.195607,103.476797 L114.195607,96.8619566 L122.363354,96.8619566 L122.363354,93.5143465 L114.195607,93.5143465 L114.195607,87.0292989 L124.563908,87.0292989 L124.563908,83.5670491 L109.812945,83.5670491 Z M141.932477,85.7669448 C141.11287,84.9914799 140.121961,84.3873157 138.958434,83.9557698 C137.792272,83.5235651 136.521353,83.3081216 135.140406,83.3081216 C133.922195,83.3081216 132.83773,83.4972111 131.888988,83.8747314 C130.940905,84.2522517 130.139745,84.7536356 129.488802,85.3782241 C128.835224,86.0047892 128.338452,86.7216166 127.999804,87.5306828 C127.659838,88.3377724 127.490514,89.1692394 127.490514,90.0204719 C127.490514,91.0878068 127.644685,91.9851587 127.951708,92.7131865 C128.259391,93.4412143 128.6659,94.0466962 129.173214,94.5322677 C129.679209,95.018498 130.255702,95.4111719 130.902033,95.7135834 C131.549681,96.0159949 132.207212,96.2742636 132.875943,96.4910248 C133.544016,96.7058095 134.202206,96.9054407 134.849195,97.0879417 C135.495526,97.2717605 136.072018,97.4957691 136.579332,97.7599674 C137.085986,98.0235069 137.493155,98.349637 137.800178,98.7383577 C138.107202,99.1257607 138.261372,99.6271446 138.261372,100.24185 C138.261372,101.341469 137.922065,102.186113 137.242134,102.773147 C136.564178,103.36084 135.603577,103.654687 134.363624,103.654687 C133.555216,103.654687 132.862766,103.544 132.286274,103.323945 C131.709781,103.102571 131.20708,102.856162 130.782122,102.586693 C130.356506,102.317883 129.985574,102.072791 129.672621,101.851418 C129.359668,101.631362 129.069774,101.520676 128.800964,101.520676 C128.594745,101.520676 128.408949,101.571407 128.242919,101.67287 C128.074254,101.77565 127.931943,101.903467 127.814668,102.053025 L126.551655,104.139599 C127.004943,104.604088 127.519504,105.023774 128.096655,105.401953 C128.673148,105.779474 129.293783,106.102309 129.957902,106.371779 C130.620045,106.641248 131.312495,106.848785 132.034594,106.994391 C132.758009,107.140655 133.48999,107.213128 134.23383,107.213128 C135.527809,107.213128 136.676841,107.015474 137.67895,106.621482 C138.682377,106.228808 139.532292,105.688552 140.226718,105.004668 C140.922462,104.320783 141.4502,103.516987 141.811908,102.595258 C142.172957,101.67287 142.352823,100.683938 142.352823,99.6271446 C142.352823,98.6560016 142.19997,97.8317819 141.892288,97.1531678 C141.585264,96.4738948 141.178096,95.8993787 140.671441,95.4296196 C140.164786,94.9624959 139.588294,94.5731163 138.940645,94.265434 C138.294315,93.9590694 137.632831,93.6902591 136.959487,93.4570267 C136.285485,93.2251119 135.625978,93.0076919 134.978988,92.8021311 C134.331999,92.597888 133.754189,92.3653144 133.248852,92.1070457 C132.740879,91.8481182 132.335029,91.5358239 132.026687,91.1688452 C131.719664,90.8025253 131.566152,90.3439666 131.566152,89.7944868 C131.566152,89.3635998 131.641261,88.9669729 131.792796,88.6046061 C131.943014,88.2448747 132.172293,87.934557 132.479316,87.6756295 C132.785681,87.4167019 133.164519,87.2137766 133.611218,87.068171 C134.059894,86.924542 134.584338,86.8500921 135.189161,86.8500921 C135.857234,86.8500921 136.436362,86.933107 136.927204,87.1011134 C137.418705,87.268461 137.846298,87.4549152 138.213935,87.6598171 C138.580255,87.8634014 138.899138,88.0511732 139.167289,88.2172031 C139.436758,88.3838918 139.679215,88.4682244 139.894658,88.4682244 C140.11142,88.4682244 140.296556,88.4194696 140.453362,88.3226189 C140.609509,88.2251093 140.74655,88.0584206 140.865801,87.8205762 L141.932477,85.7669448 Z M145.685279,83.5670491 L145.685279,106.954201 L160.435584,106.954201 L160.435584,103.476797 L150.067941,103.476797 L150.067941,96.8619566 L158.236347,96.8619566 L158.236347,93.5143465 L150.067941,93.5143465 L150.067941,87.0292989 L160.435584,87.0292989 L160.435584,83.5670491 L145.685279,83.5670491 Z M175.572632,83.5670491 L171.126062,83.5670491 L161.939735,106.954201 L165.31897,106.954201 C165.68529,106.954201 165.995608,106.85142 166.249923,106.646518 C166.501603,106.442934 166.672245,106.214973 166.758554,105.967245 L168.505162,101.195863 L178.192873,101.195863 L179.94014,105.967245 C180.048191,106.248574 180.222786,106.482465 180.46656,106.671555 C180.708358,106.859985 181.018675,106.954201 181.395537,106.954201 L184.760277,106.954201 L175.572632,83.5670491 Z M172.468796,90.3762502 C172.608472,90.0204719 172.752101,89.6053973 172.896389,89.1310262 C173.041994,88.6566552 173.190235,88.1447297 173.34177,87.5939322 C173.493306,88.1447297 173.646159,88.6533609 173.801647,89.1224612 C173.958453,89.5915614 174.102082,89.9993888 174.231216,90.3439666 L177.076784,98.1236519 L169.621911,98.1236519 L172.468796,90.3762502 Z M193.5256,97.8166284 C193.956487,97.8166284 194.282617,97.8752659 194.50399,97.9938587 C194.724704,98.1124514 194.926971,98.3127414 195.109472,98.593411 L200.02646,106.080567 C200.210279,106.361896 200.434946,106.577339 200.699144,106.727557 C200.962025,106.879092 201.282884,106.954201 201.661063,106.954201 L205.574625,106.954201 L199.720095,98.3180122 C199.320833,97.73559 198.846462,97.2882317 198.296323,96.9746198 C199.115931,96.7163511 199.847253,96.3704555 200.487654,95.9402273 C201.130031,95.5086815 201.667652,95.0066388 202.105127,94.4367347 C202.541944,93.8655128 202.87598,93.2277473 203.107895,92.5273912 C203.340469,91.8263762 203.455108,91.082536 203.455108,90.2952118 C203.455108,89.3036446 203.286443,88.3944334 202.946477,87.5708725 C202.606511,86.7453351 202.074161,86.0370728 201.345475,85.4434501 C200.616788,84.8504863 199.685835,84.3899511 198.546686,84.0605268 C197.409513,83.7311024 196.043061,83.5670491 194.44667,83.5670491 L187.315292,83.5670491 L187.315292,106.954201 L191.66567,106.954201 L191.66567,97.8166284 L193.5256,97.8166284 Z M191.66567,86.9304716 L194.44667,86.9304716 C196.054261,86.9304716 197.248095,87.2500132 198.029489,87.8864611 C198.810884,88.52225 199.202899,89.4327789 199.202899,90.6193654 C199.202899,91.2123292 199.106048,91.7578559 198.911688,92.2526513 C198.717327,92.7474466 198.423481,93.177016 198.029489,93.5387239 C197.636157,93.9004318 197.134114,94.1824191 196.526656,94.3879798 C195.917221,94.5915641 195.201711,94.6956622 194.383421,94.6956622 L191.66567,94.6956622 L191.66567,86.9304716 Z M223.268006,101.528582 C223.149413,101.586561 223.03675,101.664964 222.928699,101.761814 C222.572921,102.085968 222.214507,102.357414 221.853458,102.579446 C221.49175,102.80016 221.110276,102.981343 220.704426,103.121678 C220.300551,103.262013 219.858464,103.363475 219.378163,103.428701 C218.898521,103.49261 218.362877,103.526211 217.770572,103.526211 C216.777029,103.526211 215.850029,103.338439 214.988255,102.967507 C214.125163,102.595258 213.375393,102.058296 212.739604,101.358599 C212.101838,100.656925 211.600455,99.795151 211.228205,98.7699824 C210.856614,97.7454727 210.669501,96.5760163 210.669501,95.2609544 C210.669501,93.9880587 210.856614,92.8436385 211.228205,91.8230819 C211.600455,90.8045019 212.117651,89.9400924 212.780453,89.2285358 C213.443254,88.5163204 214.235849,87.969476 215.158237,87.5860261 C216.079308,87.2025761 217.090641,87.01151 218.188941,87.01151 C219.127801,87.01151 219.901948,87.1096785 220.511383,87.3046977 C221.120818,87.4983992 221.622861,87.7072542 222.0241,87.934557 C222.423362,88.161201 222.75081,88.3707148 223.010396,88.5650752 C223.268006,88.7587767 223.522321,88.8562863 223.76939,88.8562863 C224.007234,88.8562863 224.193688,88.8075315 224.327435,88.7100219 C224.46184,88.6131712 224.573185,88.4991903 224.659494,88.3707148 L226.114891,86.3493671 C225.187891,85.4322497 224.075096,84.6969746 222.775846,84.1409063 C221.475937,83.5868146 219.957291,83.3081216 218.222543,83.3081216 C216.44431,83.3081216 214.818272,83.6026269 213.345745,84.19032 C211.874536,84.778013 210.609546,85.6002561 209.552753,86.6563906 C208.497277,87.7131839 207.67767,88.9729025 207.095906,90.4329112 C206.513484,91.8948964 206.221614,93.5038049 206.221614,95.2609544 C206.221614,96.9970206 206.483836,98.5973641 207.005644,100.063302 C207.529429,101.531217 208.281834,102.792254 209.262859,103.849047 C210.243885,104.90584 211.427177,105.730719 212.812077,106.323683 C214.197636,106.916646 215.759107,107.213128 217.495174,107.213128 C219.435483,107.213128 221.098417,106.899516 222.483976,106.274269 C223.870852,105.649022 225.036356,104.749034 225.985098,103.573648 L224.272091,101.713718 C224.098814,101.531217 223.893253,101.439637 223.657385,101.439637 C223.517051,101.439637 223.387257,101.469285 223.268006,101.528582 L223.268006,101.528582 Z M249,83.5670491 L244.617339,83.5670491 L244.617339,93.6263508 L233.65212,93.6263508 L233.65212,83.5670491 L229.2688,83.5670491 L229.2688,106.954201 L233.65212,106.954201 L233.65212,96.7321635 L244.617339,96.7321635 L244.617339,106.954201 L249,106.954201 L249,83.5670491 L249,83.5670491 Z" id="Fill-1" fill="#203E66"></path>
            <path d="M96.3889033,70.1950563 C97.9095261,70.1950563 99.2357884,70.0072844 100.36769,69.6304229 C101.499593,69.2522438 102.443064,68.7238471 103.198104,68.045233 C103.952486,67.3653012 104.518437,66.5542584 104.896616,65.6107871 C105.273478,64.6673158 105.461908,63.6296291 105.461908,62.4970683 C105.461908,61.4086502 105.284019,60.4052237 104.928241,59.4887652 C104.572463,58.5723067 104.022983,57.7856413 103.279802,57.1281103 C102.535303,56.4699205 101.591172,55.9573362 100.448729,55.5910164 C99.3049676,55.2246965 97.9523512,55.0408777 96.3889033,55.0408777 L88.7712948,55.0408777 L88.7712948,78.4280294 L93.1216727,78.4280294 L93.1216727,70.1950563 L96.3889033,70.1950563 Z M93.1216727,58.4056179 L96.3889033,58.4056179 C97.186769,58.4056179 97.8825133,58.4998333 98.4761359,58.688264 C99.067782,58.8766947 99.5592832,59.1487993 99.947345,59.5045775 C100.335407,59.8610147 100.625959,60.2925606 100.820978,60.7998741 C101.015339,61.3065287 101.111531,61.8718209 101.111531,62.4970683 C101.111531,63.1552581 101.015339,63.7508573 100.820978,64.2845247 C100.625959,64.8181922 100.335407,65.2708212 99.947345,65.6430707 C99.5592832,66.0146614 99.067782,66.3012605 98.4761359,66.5002328 C97.8825133,66.699864 97.186769,66.7993501 96.3889033,66.7993501 L93.1216727,66.7993501 L93.1216727,58.4056179 Z M117.705952,55.0408777 L113.258065,55.0408777 L104.071738,78.4280294 L107.450973,78.4280294 C107.817951,78.4280294 108.12761,78.325249 108.381926,78.1196882 C108.634924,77.9154451 108.804907,77.68946 108.891216,77.4404152 L110.637824,72.6703508 L120.326194,72.6703508 L122.07346,77.4404152 C122.180853,77.7224024 122.354789,77.9569526 122.598563,78.1447244 C122.841019,78.3331552 123.150019,78.4280294 123.528198,78.4280294 L126.891621,78.4280294 L117.705952,55.0408777 Z M114.600799,61.8500789 C114.740474,61.4943006 114.883445,61.0798847 115.028391,60.6055137 C115.174656,60.1298249 115.322897,59.6178995 115.474432,59.0677609 C115.625308,59.6178995 115.778161,60.1271895 115.934967,60.5962898 C116.091114,61.0653901 116.232767,61.4732174 116.364536,61.8177953 L119.210104,69.5974805 L111.753255,69.5974805 L114.600799,61.8500789 Z M135.657602,69.290457 C136.089807,69.290457 136.41462,69.3497534 136.636652,69.4676873 C136.856707,69.5856212 137.059632,69.7865701 137.242134,70.0665808 L142.159121,77.5550549 C142.34294,77.8357244 142.565631,78.0505091 142.830488,78.2013854 C143.094686,78.3529206 143.415546,78.4280294 143.793066,78.4280294 L147.707286,78.4280294 L141.852757,69.7918409 C141.452835,69.2094186 140.978464,68.7627192 140.428985,68.4491072 C141.247933,68.1901797 141.978597,67.8442842 142.619656,67.4133971 C143.261375,66.9825101 143.799654,66.4811262 144.23713,65.9092456 C144.673288,65.3380238 145.007983,64.7022348 145.241215,64.0012198 C145.471812,63.3002048 145.58777,62.5563646 145.58777,61.7690405 C145.58777,60.7774732 145.417128,59.8689209 145.07848,59.0440423 C144.738514,58.2191638 144.204846,57.5109014 143.477477,56.9172788 C142.748791,56.324315 141.817179,55.8631209 140.679347,55.5343554 C139.540857,55.204931 138.174404,55.0408777 136.579332,55.0408777 L129.447295,55.0408777 L129.447295,78.4280294 L133.797673,78.4280294 L133.797673,69.290457 L135.657602,69.290457 Z M133.797673,58.4056179 L136.579332,58.4056179 C138.186264,58.4056179 139.380756,58.7238419 140.162151,59.3596308 C140.943545,59.9960787 141.334902,60.9066075 141.334902,62.093194 C141.334902,62.685499 141.238051,63.2310257 141.043032,63.7264799 C140.84933,64.2219341 140.556142,64.6508446 140.162151,65.0118937 C139.768159,65.3736016 139.266117,65.6555888 138.657999,65.8611496 C138.047905,66.0660516 137.334372,66.168832 136.516082,66.168832 L133.797673,66.168832 L133.797673,58.4056179 Z M147.609776,55.0408777 L147.609776,58.6157907 L154.677246,58.6157907 L154.677246,78.4280294 L159.028283,78.4280294 L159.028283,58.6157907 L166.06281,58.6157907 L166.06281,55.0408777 L147.609776,55.0408777 Z M196.646566,61.971307 C196.075344,60.5106395 195.271549,59.2496031 194.237156,58.1868802 C193.201446,57.125475 191.956881,56.2920314 190.499508,55.6878671 C189.04477,55.0843617 187.433885,54.7819502 185.665535,54.7819502 C183.895868,54.7819502 182.281688,55.0817263 180.82168,55.6799609 C179.359694,56.2788544 178.1092,57.1116391 177.068219,58.178974 C176.028555,59.2463089 175.222125,60.5106395 174.650903,61.971307 C174.078363,63.4332922 173.793082,65.0204587 173.793082,66.734783 C173.793082,68.4491072 174.078363,70.0369326 174.650903,71.4976001 C175.222125,72.9582676 176.028555,74.2225982 177.068219,75.290592 C178.1092,76.3579268 179.359694,77.1907116 180.82168,77.7889462 C182.281688,78.3871808 183.895868,78.6862981 185.665535,78.6862981 C187.433885,78.6862981 189.04477,78.3871808 190.499508,77.7889462 C191.956881,77.1907116 193.201446,76.3579268 194.237156,75.290592 C195.271549,74.2225982 196.075344,72.9582676 196.646566,71.4976001 C197.217788,70.0369326 197.503728,68.4491072 197.503728,66.734783 C197.503728,65.0204587 197.217788,63.4332922 196.646566,61.971307 L196.646566,61.971307 Z M192.530079,70.1871501 C192.190772,71.2070478 191.702566,72.0694808 191.066777,72.7757665 C190.430988,73.4813935 189.65684,74.0242848 188.746312,74.4011462 C187.834465,74.7780077 186.807979,74.9664384 185.665535,74.9664384 C184.521774,74.9664384 183.491993,74.7780077 182.576194,74.4011462 C181.659076,74.0242848 180.879658,73.4813935 180.239257,72.7757665 C179.596221,72.0694808 179.104061,71.2070478 178.759483,70.1871501 C178.414246,69.1692289 178.241628,68.0175614 178.241628,66.734783 C178.241628,65.4520046 178.414246,64.3003371 178.759483,63.281757 C179.104061,62.263177 179.596221,61.3974498 180.239257,60.6852344 C180.879658,59.9736778 181.659076,59.4301276 182.576194,59.0519485 C183.491993,58.6750871 184.521774,58.4859975 185.665535,58.4859975 C186.807979,58.4859975 187.834465,58.6750871 188.746312,59.0519485 C189.65684,59.4301276 190.430988,59.9736778 191.066777,60.6852344 C191.702566,61.3974498 192.190772,62.263177 192.530079,63.281757 C192.870045,64.3003371 193.03937,65.4520046 193.03937,66.734783 C193.03937,68.0175614 192.870045,69.1692289 192.530079,70.1871501 L192.530079,70.1871501 Z M200.931718,55.0408777 L200.931718,78.4280294 L205.315038,78.4280294 L205.315038,68.9017363 L214.065866,68.9017363 L214.065866,65.4243329 L205.315038,65.4243329 L205.315038,58.5031275 L215.682022,58.5031275 L215.682022,55.0408777 L200.931718,55.0408777 L200.931718,55.0408777 Z" id="Fill-2" fill="#203E66"></path>
            <path d="M97.4555793,49.901858 C98.815443,49.901858 100.022454,49.7292397 101.078588,49.3840029 C102.13604,49.0387662 103.025486,48.5617598 103.746925,47.9523248 C104.469682,47.3435486 105.02048,46.618815 105.398,45.7774653 C105.774862,44.9367743 105.963951,44.0203158 105.963951,43.0287486 C105.963951,40.2787142 104.357019,38.5426479 101.143155,37.8205497 C101.866571,37.5728226 102.489183,37.2704111 103.012309,36.9146328 C103.534776,36.5588545 103.966981,36.1622276 104.306288,35.7260698 C104.644936,35.2892531 104.895957,34.8201528 105.058034,34.318769 C105.220111,33.8173851 105.300491,33.2916239 105.300491,32.7414852 C105.300491,31.7822016 105.139073,30.9197686 104.815578,30.1535276 C104.491424,29.3886043 103.982134,28.7363441 103.287049,28.1974059 C102.591305,27.6578088 101.701859,27.2427341 100.618712,26.9521819 C99.5349058,26.6603119 98.2270911,26.5147063 96.6965856,26.5147063 L88.6263481,26.5147063 L88.6263481,49.901858 L97.4555793,49.901858 Z M97.3751998,39.6475371 C98.1407819,39.6475371 98.793701,39.7239636 99.3326392,39.8748399 C99.8722363,40.0250574 100.314324,40.2431363 100.658902,40.5297355 C101.003479,40.815017 101.257136,41.1595948 101.419213,41.5634691 C101.580631,41.9693199 101.661669,42.4239255 101.661669,42.931239 C101.661669,43.4161516 101.589196,43.8747103 101.442932,44.3055973 C101.297985,44.7371432 101.060799,45.1140046 100.731375,45.4374993 C100.402609,45.7616529 99.9657928,46.0199216 99.4222426,46.2142819 C98.8760571,46.4086423 98.2007372,46.5048342 97.3923298,46.5048342 L92.976726,46.5048342 L92.976726,39.6475371 L97.3751998,39.6475371 Z M92.976726,29.8794466 L96.6965856,29.8794466 C98.1631828,29.8794466 99.2410592,30.1377153 99.9315327,30.6555703 C100.621347,31.1727665 100.965925,32.0411291 100.965925,33.2586815 C100.965925,34.4347264 100.583793,35.2918885 99.8175518,35.8308267 C99.0519697,36.3704238 97.9312681,36.6398929 96.4541293,36.6398929 L92.976726,36.6398929 L92.976726,29.8794466 Z M109.699623,26.5147063 L109.699623,49.901858 L124.44861,49.901858 L124.44861,46.4237958 L114.082285,46.4237958 L114.082285,39.8096139 L122.249373,39.8096139 L122.249373,36.4626626 L114.082285,36.4626626 L114.082285,29.9756385 L124.44861,29.9756385 L124.44861,26.5147063 L109.699623,26.5147063 L109.699623,26.5147063 Z" id="Fill-3" fill="#203E66"></path>
            <g id="Group-7" transform="translate(0.336013, 37.976697)">
                <mask id="mask-2" fill="white">
                    <use xlink:href="#path-1"></use>
                </mask>
                <g id="Clip-5"></g>
                <path d="M74.8860589,0 L74.8860589,0 C74.8676111,1.32955664 74.811609,2.62221775 74.7351825,3.83845242 C74.6613915,4.75688748 74.3431676,7.24799435 73.7811696,10.1502228 C71.6649477,8.3706725 69.7167321,7.5477705 67.8067298,7.5477705 C65.5422669,7.5477705 63.3693839,8.70800303 61.0660489,10.767564 C58.5571531,13.0148969 55.2602743,14.3826667 51.6280416,14.3826667 C49.287811,14.3826667 47.0780326,13.8193511 45.1304759,12.8086772 C43.1822603,11.7973445 41.4975842,10.336677 40.2240297,8.57689214 C38.0709122,5.61866156 35.9369013,4.40242689 33.9504726,4.40242689 C33.7449118,4.40242689 33.5195855,4.41889811 33.3146836,4.43800472 L33.2949181,4.43800472 C31.8342506,4.64422436 30.4486918,5.46712636 29.1942439,6.7222331 C27.7889197,8.12755734 25.9355784,9.06378132 23.8575696,9.30689648 L23.8391219,9.32600309 C23.4451303,9.75623128 23.0702454,10.2068838 22.7329149,10.6746663 C20.3742366,13.8951187 18.051795,15.2246753 15.8795709,15.2246753 C14.007123,15.2246753 12.247997,14.250897 10.6931141,12.6966729 C8.95177704,10.9553359 6.55290899,9.84978779 3.89577226,9.7944445 C3.37066986,9.90578993 2.86533292,10.1502228 2.3968915,10.5060011 C1.76044368,11.0106792 1.18065684,11.7031291 0.637765524,12.6024576 C0.355778288,13.0531101 0.225326249,13.5202338 0.131110888,14.0262296 C0.0382132235,14.5315665 -3.36475729e-15,15.0362446 -3.36475729e-15,15.5797948 C-3.36475729e-15,17.0220145 0.243774012,18.7080083 0.637765524,20.468452 C0.842667464,21.4231237 1.10554809,22.3975609 1.40466539,23.3700216 C1.92976779,25.0935697 2.54645016,26.7973524 3.23955897,28.2955743 C3.44577861,28.7831224 3.66978716,29.2324572 3.89577226,29.6626854 C3.66978716,29.2324572 3.44577861,28.7831224 3.23955897,28.2955743 C2.54645016,26.7973524 1.92976779,25.0935697 1.40466539,23.3700216 C3.83911127,20.7860171 6.49822455,18.2593324 9.70022914,17.6960167 C10.0276769,17.6393558 10.3603955,17.6130018 10.6983849,17.6130018 C13.223093,17.6130018 16.0337415,19.0921171 18.922793,20.5718912 C21.8125033,22.0510065 24.7799578,23.5307807 27.6189367,23.5307807 C27.8449218,23.5307807 28.0702481,23.5208979 28.2949155,23.5024502 C33.9320248,22.9944778 39.4946842,14.5315665 45.6167062,14.5315665 C51.7222569,14.5315665 57.2658097,22.9944778 62.9193903,23.5024502 C63.1433988,23.5208979 63.3674074,23.5307807 63.5927336,23.5307807 C67.709879,23.5307807 72.1103294,20.411791 76.1405068,18.7080083 C76.0851635,19.0637866 76.0278436,19.4380127 75.9533937,19.7931321 C75.8038351,20.5804563 75.6167221,21.4040171 75.4111613,22.2097891 C74.811609,24.5691262 73.9860716,26.9284633 73.0887197,28.8964443 C72.4885085,30.2062355 71.8718261,31.3117836 71.1596107,32.1524745 C70.7287237,32.6393637 70.2984955,33.0722273 69.6989432,33.3324725 C69.2305018,33.5202444 68.7818258,33.6144597 68.332491,33.6513553 C67.9760539,34.8313533 67.5827212,35.9922446 67.1893886,37.1340294 C67.5827212,35.9922446 67.9760539,34.8313533 68.332491,33.6513553 C68.7818258,33.6144597 69.2305018,33.5202444 69.6989432,33.3324725 C70.2984955,33.0722273 70.7287237,32.6393637 71.1596107,32.1524745 C71.8718261,31.3117836 72.4885085,30.2062355 73.0887197,28.8964443 C73.9860716,26.9284633 74.811609,24.5691262 75.4111613,22.2097891 C75.6167221,21.4040171 75.8038351,20.5804563 75.9533937,19.7931321 C76.0278436,19.4380127 76.0851635,19.0637866 76.1405068,18.7080083 C76.309172,17.6406735 76.4027285,16.6102341 76.4027285,15.6740101 C76.4027285,15.0751167 76.365833,14.5124599 76.2709588,13.9893341 C76.1589545,13.4655494 76.0093959,12.9588947 75.7089609,12.4713467 C75.1476218,11.6115492 74.5671761,10.9355704 73.9313871,10.4308923 C73.8747261,10.3926791 73.8002762,10.3557836 73.7442741,10.3188881 C73.7627219,10.2622271 73.7627219,10.2068838 73.7811696,10.1502228 C74.3431676,7.24799435 74.6613915,4.75688748 74.7351825,3.83845242 C74.811609,2.62221775 74.8676111,1.32955664 74.8860589,0" id="Fill-4" fill="#E9842C" mask="url(#mask-2)"></path>
                <path d="M111.869871,98.9491893 C110.746534,99.6238503 109.492086,100.072526 108.144081,100.278746 C110.017188,100.52252 111.795421,101.139861 113.217875,101.515405 C112.787647,100.633865 112.338312,99.7727501 111.869871,98.9491893 M37.7421467,97.7994983 C36.730814,97.7994983 36.1226967,98.2857286 36.1226967,99.7918567 C36.1226967,101.299961 36.7314729,101.787509 37.7441233,101.787509 C38.6678291,101.787509 39.9262301,101.381 41.3664733,100.975808 C42.8067166,100.571275 44.4261666,100.166083 46.0713118,100.166083 C46.1075484,100.166083 46.1431263,100.166083 46.179363,100.166742 C45.2042669,99.9789698 44.2680429,99.6416392 43.4075865,99.1916456 C43.3515844,99.1540912 43.2758168,99.1178545 43.2198147,99.0796413 C41.0166247,98.6059291 39.0453494,97.7994983 37.7421467,97.7994983 M94.0987453,95.1851868 C92.1149519,95.1851868 90.0738387,96.3269715 87.7705037,98.8931871 C85.222077,101.719648 81.5331832,103.499857 77.4331679,103.499857 C75.3913958,103.499857 73.4438391,103.049863 71.6840543,102.264516 C69.9236106,101.458744 68.3878343,100.297194 67.113621,98.8931871 C64.7924971,96.3269715 62.750725,95.1851868 60.7847205,95.1851868 C59.0433835,95.1851868 57.3758375,96.0647497 55.6167115,97.6387392 C53.6882614,99.3616285 51.1596001,100.409198 48.3891414,100.409198 L48.1269197,100.409198 L48.1638152,100.409198 C50.8604828,101.102966 53.1262635,106.176759 56.7024941,106.795418 C56.8797244,106.826384 57.0589312,106.84022 57.2414323,106.84022 C58.623038,106.84022 60.1607908,106.028518 61.7413688,105.218134 C63.3226057,104.406433 64.9460088,103.596049 66.499574,103.596049 C66.6234375,103.596049 66.74796,103.60132 66.8718235,103.611861 C69.9427172,103.89319 72.9945043,108.518308 76.3269609,108.518308 C79.6600764,108.518308 82.7138401,103.89319 85.7840749,103.611861 C85.9079385,103.60132 86.031802,103.596049 86.1569833,103.596049 C87.7098896,103.596049 89.3339516,104.406433 90.9145296,105.218793 C92.4964253,106.029177 94.0335193,106.84022 95.4138072,106.84022 C95.5949906,106.84022 95.7755152,106.826384 95.9520866,106.795418 C99.529635,106.176759 101.796733,101.102966 104.491424,100.409198 C104.696985,100.353196 104.886734,100.315641 105.092294,100.297194 C102.86275,100.034313 100.840085,99.0611935 99.2667543,97.6387392 C97.5069695,96.0647497 95.8222934,95.1851868 94.0987453,95.1851868" id="Fill-6" fill="#36A3A1" mask="url(#mask-2)"></path>
            </g>
            <path d="M29.6837685,135.199044 C28.2652673,135.199044 27.1142586,136.349394 27.1142586,137.769212 C27.1142586,139.187714 28.2652673,140.337405 29.6837685,140.337405 C31.1035874,140.337405 32.2539372,139.187714 32.2539372,137.769212 C32.2539372,136.349394 31.1035874,135.199044 29.6837685,135.199044" id="Fill-8" fill="#36A3A1"></path>
            <path d="M45.9533779,52.5082634 C39.8300382,52.5082634 34.2680376,60.9711747 28.6309283,61.479147 C28.4069198,61.4975948 28.1809347,61.5074775 27.9549496,61.5074775 C25.1159706,61.5074775 22.1478573,60.0277034 19.2588058,58.5485881 C16.3697543,57.068814 13.5591059,55.5896987 11.0343977,55.5896987 C10.6964083,55.5896987 10.3636898,55.6160526 10.036242,55.6727136 C6.83423738,56.2360292 4.1751241,58.7627139 1.74001937,61.3467185 C2.26578062,63.0696078 2.88246298,64.7740493 3.5755718,66.2722712 C3.78179143,66.7598192 4.00645883,67.209154 4.23178508,67.6393822 C4.56911561,68.2745123 4.90578728,68.8371691 5.24245896,69.3438238 C5.54289396,69.7740519 5.84135241,70.1673846 6.17802409,70.4842908 C6.51601346,70.8209625 6.89023951,71.1036086 7.33891547,71.2900628 C7.75201359,71.4580692 8.18224178,71.5707323 8.59402221,71.6089455 C8.72513309,71.6280521 8.87535059,71.6280521 9.00580263,71.6280521 C9.15667898,71.6280521 9.30491993,71.6089455 9.45579628,71.5911566 L9.47424404,71.6649477 C10.3735725,74.9611676 11.5720182,78.124959 13.0702401,81.0476117 C11.5720182,78.124959 10.3735725,74.9611676 9.47424404,71.6649477 L9.45579628,71.5911566 C9.30491993,71.6089455 9.15667898,71.6280521 9.00580263,71.6280521 C8.87535059,71.6280521 8.72513309,71.6280521 8.59402221,71.6089455 C11.403353,67.8067298 15.4111295,64.9427146 20.054695,63.6131579 C21.9455907,63.0696078 23.968915,62.7704905 26.0469238,62.7704905 C28.8364891,62.7704905 31.4969201,63.294934 33.9307071,64.2673947 C36.3664707,65.2233841 38.6124858,66.6096017 40.5224882,68.3318322 C41.5713753,69.2680562 42.6196035,70.0922759 43.6487252,70.7853847 C46.0653821,72.394952 48.443167,73.2758327 50.8967195,73.2758327 C53.9116111,73.2758327 56.9831636,71.946276 60.3347269,69.0427299 C61.383614,68.1262714 62.4687378,67.0576188 63.5749447,65.8235952 C66.9456146,62.0595927 71.3269583,59.2304965 76.2900654,57.769829 C76.1398479,58.5571531 75.952076,59.380714 75.7471741,60.1864859 C75.1469629,62.5458231 74.3227432,64.9051602 73.4247325,66.8724824 C72.8245213,68.1829324 72.207839,69.2884805 71.4956236,70.1291714 C71.0647365,70.6160606 70.6338495,71.0489241 70.034956,71.3091694 C69.5665146,71.4969412 69.1178387,71.5911566 68.6685039,71.6280521 C68.3120667,72.8080501 67.9187341,73.9689415 67.5254014,75.1107263 C67.4127383,75.4098436 67.300734,75.6924897 67.2071775,75.9731592 C67.300734,75.6924897 67.4127383,75.4098436 67.5254014,75.1107263 C67.9187341,73.9689415 68.3120667,72.8080501 68.6685039,71.6280521 C69.1178387,71.5911566 69.5665146,71.4969412 70.034956,71.3091694 C70.6338495,71.0489241 71.0647365,70.6160606 71.4956236,70.1291714 C72.207839,69.2884805 72.8245213,68.1829324 73.4247325,66.8724824 C74.3227432,64.9051602 75.1469629,62.5458231 75.7471741,60.1864859 C75.952076,59.380714 76.1398479,58.5571531 76.2900654,57.769829 C76.3638565,57.4147095 76.4205174,57.0404835 76.4765196,56.6847052 C72.4463422,58.3884879 68.0458919,61.5074775 63.9287464,61.5074775 C63.7034202,61.5074775 63.4794116,61.4975948 63.2554031,61.479147 C57.6018226,60.9711747 52.0582697,52.5082634 45.9533779,52.5082634" id="Fill-9" fill="#F9CC79"></path>
            <path d="M76.2900654,57.769829 C71.3269583,59.2304965 66.9456146,62.0589339 63.5749447,65.8229364 C62.4687378,67.0582777 61.3829551,68.1262714 60.3347269,69.0433888 C56.9831636,71.946276 53.9116111,73.2764915 50.8967195,73.2764915 C48.443167,73.2764915 46.0647233,72.3956109 43.649384,70.7853847 C42.6189447,70.0935936 41.5713753,69.2680562 40.523147,68.3318322 C38.611827,66.6096017 36.3658118,65.2233841 33.9307071,64.2673947 C31.4969201,63.294934 28.8364891,62.7704905 26.0475826,62.7704905 C23.968915,62.7704905 21.9462496,63.0702666 20.0540362,63.6131579 C15.4117884,64.9427146 11.403353,67.8073886 8.59402221,71.6089455 C8.72579194,71.6260756 8.87535059,71.6260756 9.00514378,71.6260756 C9.15602013,71.6260756 9.30557878,71.6089455 9.45579628,71.5911566 L9.47490289,71.6649477 C10.3735725,74.9618265 11.5720182,78.1243001 13.0702401,81.0476117 C13.8377989,82.6202835 14.7002318,84.1191643 15.6726924,85.5422774 C15.8973598,85.8973969 16.140475,86.2709641 16.4033556,86.6082946 C17.3211318,87.9194035 18.3318057,89.1547448 19.3991406,90.2978472 C19.6620212,90.5798345 19.924243,90.8591863 20.2042537,91.1220669 C20.3735778,92.7626002 20.468452,94.2483039 20.4691108,95.6035557 C20.468452,94.2483039 20.3735778,92.7626002 20.2042537,91.1220669 C19.924243,90.8591863 19.6620212,90.5798345 19.3991406,90.2978472 C18.3318057,89.1547448 17.3211318,87.9194035 16.4033556,86.6082946 C16.140475,86.2709641 15.8973598,85.8973969 15.6726924,85.5422774 C16.6833663,84.9611729 17.7144645,84.4736249 18.800906,84.1191643 C21.8520342,80.8776288 25.0355911,77.3765069 28.7620392,75.4842935 C29.9051417,74.8860589 31.1213763,74.4564895 32.3764831,74.2489522 C32.846901,74.1685727 33.3252252,74.1316771 33.8121143,74.1316771 C39.5124731,74.1316771 46.2129642,79.3504175 52.7876152,81.6273986 C54.6350269,82.274388 56.4554258,82.683533 58.2494708,82.683533 C58.5828482,82.683533 58.9162257,82.6690383 59.2482854,82.6387313 C61.3085052,82.4522771 63.3687251,81.5345009 65.428286,80.241181 C64.4545077,82.4325117 63.3305118,84.5111793 62.0767228,86.458736 C61.3276118,87.6380751 60.5033921,88.7614121 59.6435946,89.8300647 C60.5033921,88.7614121 61.3276118,87.6380751 62.0767228,86.458736 C63.3305118,84.5111793 64.4545077,82.4325117 65.428286,80.241181 C66.0831816,78.8569399 66.6642862,77.4318502 67.2078363,75.973818 C67.300734,75.6918308 67.4127383,75.4098436 67.5254014,75.1100674 C67.9187341,73.9689415 68.3120667,72.8080501 68.6685039,71.6260756 C69.1178387,71.5911566 69.5665146,71.4969412 70.034956,71.3091694 C70.6345083,71.0482653 71.0647365,70.6160606 71.4956236,70.1291714 C72.2071801,69.2884805 72.8245213,68.1829324 73.4247325,66.8724824 C74.3220844,64.9051602 75.1476218,62.5458231 75.7471741,60.1864859 C75.9527349,59.3800551 76.1398479,58.5571531 76.2900654,57.769829" id="Fill-10" fill="#42A46F"></path>
            <path d="M33.8121143,74.1316771 C33.325884,74.1316771 32.846901,74.1685727 32.3764831,74.2489522 C31.1220352,74.4564895 29.9051417,74.8860589 28.7613804,75.4842935 C25.0349322,77.3765069 21.8526931,80.8776288 18.8002471,84.1185054 C19.4182472,83.9300747 20.054695,83.7627272 20.7095906,83.6507229 C21.261047,83.5551898 21.8197506,83.5103881 22.3876782,83.5103881 C26.6359345,83.5117058 31.3638326,85.9975419 36.2208651,88.4860134 C41.0778976,90.9718494 46.0653821,93.4590032 50.8347877,93.4590032 C51.2320735,93.4590032 51.6267239,93.4418731 52.0207154,93.4056365 C54.5671655,93.1816279 57.1142745,91.983841 59.6607247,90.3551671 C59.6429358,90.1851841 59.6429358,89.9987299 59.6429358,89.8294058 C60.5027333,88.7614121 61.3282707,87.6380751 62.0767228,86.458736 C63.3305118,84.5111793 64.4551665,82.4318528 65.4276272,80.241181 C63.3693839,81.5345009 61.3078464,82.4522771 59.2482854,82.6387313 C58.9155668,82.6690383 58.5828482,82.683533 58.248812,82.683533 C56.4554258,82.683533 54.6350269,82.2750468 52.7882741,81.6273986 C46.2129642,79.3497587 39.5124731,74.1316771 33.8121143,74.1316771" id="Fill-11" fill="#5E629D"></path>
            <path d="M14.0756432,107.460855 C12.8976218,108.149352 11.5133807,108.781188 9.92555539,109.396553 C9.92423769,109.400506 9.92423769,109.4038 9.92357884,109.407094 C11.5199692,108.787118 12.8949864,108.152647 14.0756432,107.460855 M22.3883371,83.5103881 C21.8197506,83.5103881 21.261047,83.5551898 20.7095906,83.6507229 C20.054695,83.7627272 19.4182472,83.9300747 18.8002471,84.1185054 C17.7144645,84.472966 16.6833663,84.9605141 15.6726924,85.5416186 C15.896701,85.8973969 16.140475,86.2709641 16.4033556,86.6082946 C17.3211318,87.9194035 18.3311469,89.1547448 19.3991406,90.2978472 C19.6620212,90.5791756 19.924243,90.8591863 20.2042537,91.1220669 C20.3742366,92.7626002 20.468452,94.2489628 20.4691108,95.6042145 C20.4710874,98.1467116 20.1442984,100.224061 19.3609274,101.982529 C18.9873602,102.881857 18.4813644,103.706736 17.8264688,104.454529 C16.9455881,105.521864 15.7846967,106.458088 14.3431358,107.301414 C15.8604643,107.694747 17.2269165,108.49986 18.3126991,109.567853 C19.6982579,110.953412 21.2722474,111.81321 22.9200279,111.81321 C24.4551454,111.81321 26.0469238,111.102971 27.6578088,109.397871 C28.1249325,108.930747 28.5749262,108.387855 29.0249198,107.769855 C29.6231544,106.945636 30.334711,106.177418 31.1029286,105.484309 L31.1213763,105.484309 C33.1071463,103.76142 35.5975943,102.601188 38.3502641,102.263198 C38.9307098,102.169642 39.5118143,102.133405 40.10939,102.133405 C43.5182731,102.133405 46.6280389,103.387853 49.0249304,105.448073 C49.1171692,105.503416 49.192278,105.560077 49.2680456,105.633868 C51.4896833,107.644015 53.615788,108.771305 55.8130484,108.771305 C58.2652832,108.771305 60.804486,107.369275 63.6678424,104.23052 L63.7053967,104.192966 C63.0867378,103.368746 62.5820597,102.469418 62.1320661,101.533194 C60.5231576,98.2376327 59.6982791,94.3240715 59.6607247,90.3551671 C57.1142745,91.983841 54.5671655,93.1816279 52.0207154,93.4056365 C51.6273827,93.4418731 51.2320735,93.4590032 50.8347877,93.4590032 C46.0653821,93.4590032 41.0785565,90.9718494 36.2208651,88.4860134 C31.3638326,85.9975419 26.6359345,83.5117058 22.3883371,83.5103881" id="Fill-12" fill="#36A3A1"></path>
            <path d="M25.7655954,120.672089 L25.7655954,120.672089 C22.6578062,121.046974 20.1673581,123.460996 19.7173645,126.532548 C19.6429146,126.870538 19.623808,127.226316 19.623808,127.582094 C19.623808,131.438994 22.7513627,134.566549 26.6082629,134.566549 C28.5380307,134.566549 30.2793677,133.779225 31.5331568,132.524777 C32.6393637,131.421205 33.874705,130.745227 35.1660484,130.745227 C36.7024835,130.745227 38.3311575,131.663003 39.9782792,133.929442 C40.9349274,135.222103 42.1327144,136.308545 43.5558275,137.056338 C43.6118296,137.094551 43.6875972,137.131447 43.7429405,137.168342 C44.6047146,137.618336 45.5409386,137.955008 46.5153758,138.14278 C47.1505059,138.292997 47.7895891,138.367447 48.4629325,138.385895 L48.7244954,138.385895 C51.4949541,138.385895 54.0242742,137.338325 55.9527243,135.615436 C57.7125091,134.041447 59.3793963,133.161884 61.1213922,133.161884 C63.0873967,133.161884 65.1285099,134.303668 67.4496338,136.869884 C68.7238471,138.273232 70.2596234,139.435441 72.0200671,140.241213 C73.7798519,141.027219 75.7274086,141.476554 77.7691807,141.476554 C81.869196,141.476554 85.5587487,139.696345 88.1051988,136.869884 C90.4098515,134.303668 92.4509647,133.161884 94.4347581,133.161884 C96.1576474,133.161884 97.8429823,134.041447 99.603426,135.615436 C101.176757,137.037232 103.198104,138.011669 105.428307,138.273232 C105.875665,138.349658 106.363213,138.385895 106.830996,138.385895 C107.393653,138.385895 107.937203,138.349658 108.480094,138.255443 C109.82744,138.049223 111.082547,137.600547 112.205884,136.925886 C112.130775,136.775669 112.056325,136.625451 111.961451,136.494999 C108.704103,130.839442 104.621218,126.587891 100.071209,123.199433 C99.5652128,123.030767 99.0407692,122.937211 98.5360911,122.918104 C98.3865325,122.881868 98.2178672,122.881868 98.0669909,122.881868 C95.5580951,122.881868 92.9734317,124.322111 90.0356255,127.600542 C88.6856445,129.098764 87.1129727,130.354529 85.3334224,131.307883 C84.5480748,131.73877 83.7225374,132.112997 82.862081,132.413432 C81.0258697,133.086775 79.0229697,133.442553 76.9443021,133.442553 C74.7351825,133.442553 72.6005128,133.030114 70.6529561,132.281662 C70.3149667,132.16834 69.978295,132.01944 69.6416234,131.868564 C67.4127383,130.858549 65.446075,129.397881 63.8365076,127.600542 C60.9151726,124.322111 58.3114026,122.881868 55.8216134,122.881868 C53.6124938,122.881868 51.4949541,124.005205 49.2680456,126.009422 C46.8329408,128.200094 43.6315951,129.529651 40.10939,129.529651 C37.8258205,129.529651 35.672703,128.965676 33.7811485,127.992557 C32.3211398,127.226316 31.0087132,126.195218 29.9044828,124.960535 C29.5862589,124.621887 29.3049305,124.24832 29.0249198,123.873435 C27.9200306,122.355448 26.8335891,121.326985 25.7655954,120.672089" id="Fill-13" fill="#5E629D"></path>
            <path d="M44.1178254,0 C41.2709403,2.05956098 39.0815861,5.82422235 36.5720315,6.46132902 C35.7359525,6.6708429 34.8906496,6.75912863 34.0512764,6.75912863 C32.0576003,6.75912863 30.0948901,6.26696866 28.3515765,5.77612639 C26.6069452,5.28462528 25.0817105,4.79378301 23.9636443,4.79378301 C22.7388446,4.79378301 22.0029106,5.38411143 22.0029106,7.21043997 C22.0029106,9.03676852 22.7388446,9.62643809 23.9643031,9.62643809 C25.0823693,9.62643809 26.607604,9.13559582 28.3522353,8.64475355 C30.0962078,8.15325244 32.0582592,7.66175132 34.0525941,7.66175132 C34.8913085,7.66175132 35.7359525,7.74871935 36.5720315,7.95955092 C39.0433729,8.57689214 41.215597,12.2835748 44.0236101,14.3635601 C44.8109342,14.1204449 45.6351539,13.9886752 46.4765037,13.9886752 C47.9200412,13.9886752 49.2680456,14.3635601 50.4473847,15.0184557 C53.1308754,13.8812829 56.0495751,11.8177688 58.7890679,11.8177688 C58.93665,11.8177688 59.0835732,11.8230396 59.2304965,11.8355577 C60.5593943,11.947562 61.8889509,12.7526751 63.2369553,13.7264534 C64.266077,12.5846687 65.5033948,11.6102315 66.8896124,10.8802271 C67.1880709,10.7300096 67.487847,10.5817687 67.8067298,10.4493401 C62.2071748,4.40110919 53.4438285,0.899987299 44.1178254,0" id="Fill-14" fill="#E9842C"></path>
            <path d="M67.8067298,10.4493401 L67.8067298,10.4493401 C67.487847,10.5817687 67.1880709,10.7300096 66.8896124,10.8802271 C65.5033948,11.6102315 64.266077,12.5846687 63.2369553,13.7264534 C62.937838,14.0440185 62.6749574,14.3820079 62.4133945,14.7371273 C60.44739,17.4344538 58.4991745,18.5393431 56.6833875,18.5393431 C55.1285046,18.5393431 53.6684959,17.73423 52.3580459,16.4237799 C51.7953891,15.8611232 51.1582824,15.3926818 50.4473847,15.0184557 C49.2673867,14.3635601 47.9200412,13.9880164 46.4765037,13.9880164 C45.6351539,13.9880164 44.8109342,14.1204449 44.0236101,14.3635601 C40.6344924,15.4124472 38.163151,18.5755797 38.163151,22.3040044 C38.163151,24.9993544 39.4558122,27.3962459 41.4396055,28.8938089 C44.0051623,25.9922393 47.7691648,24.1573458 51.9640544,24.1573458 C55.596946,24.1573458 58.893166,25.5244568 61.4027206,27.7711308 C63.7014436,29.8372803 65.8894801,30.9948774 68.1480134,30.9948774 C70.2299752,30.9948774 72.3718923,30.0105575 74.7167348,27.8468984 C74.2851889,24.1949001 73.4991824,20.6180106 72.2638411,17.490456 C71.5891801,15.7682255 70.7649604,14.1948948 69.7720754,12.8277838 C69.1731819,12.004223 68.5176275,11.198451 67.8067298,10.4493401" id="Fill-15" fill="#EC9A84"></path>
            <path d="M51.9640544,24.1573458 C47.768506,24.1573458 44.0058212,25.9922393 41.4396055,28.8944678 C41.1220405,29.2311395 40.8222643,29.5882354 40.5600425,29.9624615 C38.4069251,32.9206921 36.2722553,34.1382444 34.2680376,34.1382444 C32.5642549,34.1382444 30.9527111,33.2402337 29.5302568,31.8164617 C27.8824762,30.1680223 25.6153779,29.1573458 23.0893521,29.1573458 C18.0695839,29.1573458 13.9880164,33.2198094 13.9880164,38.2580253 C13.9880164,43.2764757 18.0695839,47.3593609 23.0893521,47.3593609 C23.4629193,47.3593609 23.8186975,47.3402543 24.1751347,47.3027 L24.1935824,47.2835933 C26.2715912,47.0404782 28.1249325,46.1042542 29.5302568,44.6995888 C30.7847047,43.4438232 32.1702634,42.6209212 33.630931,42.4147016 L33.6506964,42.4147016 C33.8555984,42.3962538 34.0809246,42.3791238 34.2864854,42.3791238 C36.2722553,42.3791238 38.4069251,43.5953584 40.5600425,46.5542479 C41.833597,48.3140327 43.5182731,49.7740414 45.4664887,50.7853741 C47.4140454,51.796048 49.6238239,52.3593636 51.9640544,52.3593636 C55.5962872,52.3593636 58.8925071,50.9915937 61.4020617,48.7442609 C63.7053967,46.6846999 65.8776208,45.5238085 68.1427426,45.5238085 C70.0527449,45.5238085 72.0009605,46.3473694 74.1171825,48.1269197 C74.6791804,45.2246912 74.9974043,42.7329255 75.0711953,41.8158081 C75.1476218,40.5989146 75.2036239,39.3062535 75.2220717,37.976038 C75.2398606,37.0035774 75.2398606,35.973138 75.2220717,34.9433575 C75.1660696,32.6400225 75.0158521,30.2240244 74.7167348,27.8468984 C72.3718923,30.0098986 70.2299752,30.9948774 68.1486722,30.9948774 C65.8894801,30.9948774 63.7014436,29.8372803 61.4020617,27.7704719 C58.8925071,25.5244568 55.5962872,24.1573458 51.9640544,24.1573458" id="Fill-16" fill="#DF6052"></path>
            <path d="M40.10939,102.132746 C39.5118143,102.132746 38.9307098,102.169642 38.3502641,102.263857 C35.5975943,102.600529 33.1078051,103.760761 31.1220352,105.484968 L31.1029286,105.484968 C30.334711,106.177418 29.6238133,106.945636 29.0249198,107.769197 C28.5749262,108.387855 28.1255914,108.930088 27.6578088,109.397871 C26.0469238,111.10363 24.4551454,111.81321 22.9200279,111.81321 C21.2715885,111.81321 19.6982579,110.952753 18.3120403,109.567195 C17.2269165,108.49986 15.8598055,107.694747 14.342477,107.301414 C14.2548501,107.354122 14.1652467,107.407489 14.0749844,107.460855 C12.8949864,108.152647 11.5193104,108.787777 9.92357884,109.406436 C9.84912894,109.434766 9.77467904,109.463755 9.70022914,109.492086 C8.52681964,109.940762 7.33562122,110.38219 6.1457405,110.819666 C4.84385551,111.300626 3.77652064,112.360054 3.48728607,113.7186 L3.48267413,113.743636 C3.31400887,114.398532 3.21979351,115.110089 3.21979351,115.821645 C3.21979351,120.708985 7.17090905,124.679207 12.0582486,124.679207 C12.9760248,124.679207 13.8753532,124.528989 14.6995729,124.286533 C16.0851317,123.835881 17.3020252,123.086111 18.3120403,122.076096 C19.6982579,120.689219 21.2715885,119.828104 22.9200279,119.828104 C23.8378042,119.828104 24.7924759,120.090985 25.7655954,120.672748 C26.8335891,121.326985 27.9193717,122.356106 29.0249198,123.874094 C29.3055894,124.247002 29.5862589,124.622546 29.9051417,124.960535 C31.0093721,126.195877 32.3204809,127.226316 33.7818073,127.993875 C35.672703,128.966335 37.8264794,129.528992 40.10939,129.528992 C43.6315951,129.528992 46.8335997,128.200094 49.2673867,126.010081 C51.495613,124.004546 53.6124938,122.881868 55.8222723,122.881868 C58.3120614,122.881868 60.9151726,124.32277 63.8365076,127.599883 C65.446075,129.397222 67.4133971,130.858549 69.6416234,131.869223 C69.978295,132.01944 70.3149667,132.168999 70.6529561,132.281662 C72.6005128,133.030773 74.7345237,133.443212 76.9443021,133.443212 C79.0236286,133.443212 81.0265286,133.087434 82.8614222,132.412114 C83.7231962,132.112997 84.5467571,131.738112 85.3340813,131.307225 C87.1129727,130.354529 88.6856445,129.099423 90.0356255,127.599883 C92.9734317,124.32277 95.5580951,122.881868 98.0676497,122.881868 C98.2178672,122.881868 98.3865325,122.881868 98.5354323,122.918104 C99.0407692,122.93787 99.5658716,123.030767 100.07055,123.198774 C99.7536435,122.974765 99.4156541,122.730991 99.0796413,122.506983 C98.4794302,122.057648 97.8429823,121.645868 97.2249823,121.269665 C93.742967,119.004543 90.0534144,117.189415 86.3078596,115.615426 C81.6827419,113.631632 76.9640676,112.001641 72.4496364,110.315647 C71.7196321,110.054084 70.9902866,109.773414 70.2596234,109.492086 C67.5827212,108.460988 65.4098383,106.626094 63.7613989,104.286522 C63.7238445,104.268734 63.7053967,104.229861 63.7053967,104.192966 L63.6678424,104.229861 C60.8051448,107.369934 58.2652832,108.770647 55.8143661,108.770647 C53.6164469,108.770647 51.4896833,107.644015 49.2673867,105.633868 C49.1929368,105.559418 49.1171692,105.503416 49.0249304,105.447414 C46.6273801,103.387853 43.5182731,102.132746 40.10939,102.132746" id="Fill-17" fill="#203E66"></path>
            <path d="M26.9660177,17.7770551 C25.5343395,17.7770551 24.2726443,18.456987 23.4438126,19.4966502 L23.4438126,19.4643666 C21.9554735,21.3150726 20.2147953,21.9264841 18.692196,21.9264841 C17.3165199,21.9264841 16.1180742,21.426418 15.4500016,20.8881386 L15.4500016,20.8986802 C15.1383662,20.6463411 14.74701,20.4882175 14.3154642,20.4882175 C13.3166496,20.4882175 12.5062657,21.2986013 12.5062657,22.2987336 C12.5062657,23.2975482 13.3166496,24.1066144 14.3154642,24.1066144 C14.74701,24.1066144 15.1383662,23.9498084 15.4500016,23.6968105 L15.4500016,23.708011 C16.118733,23.1690727 17.3171788,22.6683477 18.692196,22.6683477 C20.2147953,22.6683477 21.9561323,23.281077 23.4438126,25.1311241 L23.4438126,25.0988405 C24.2726443,26.1385038 25.5343395,26.8177767 26.9660177,26.8177767 C29.4623954,26.8177767 31.4863785,24.7931347 31.4863785,22.2987336 C31.4863785,19.8010383 29.4623954,17.7770551 26.9660177,17.7770551" id="Fill-18" fill="#EC9A84"></path>
            <path d="M4.66464867,42.8403178 C7.24008816,42.8403178 9.32863849,40.7517675 9.32863849,38.1756692 C9.32863849,35.6002297 7.24008816,33.5123382 4.66464867,33.5123382 C2.08855032,33.5123382 0,35.6002297 0,38.1756692 C0,40.7517675 2.08855032,42.8403178 4.66464867,42.8403178" id="Fill-19" fill="#DF6052"></path>
        </g>
    </g>
</svg>