<?xml version="1.0" encoding="UTF-8"?>
<svg width="249px" height="147px" viewBox="0 0 249 147" version="1.1" xmlns="http://www.w3.org/2000/svg" xmlns:xlink="http://www.w3.org/1999/xlink">
    <title>04. Logos/BPoR/White/Landscape</title>
    <g id="04.-Logos/BPoR/White/Landscape" stroke="none" stroke-width="1" fill="none" fill-rule="evenodd">
        <g id="BPoR-Single-colour-white-(1)">
            <path d="M94.8847518,97.8555229 C95.3149799,97.8555229 95.6417689,97.9141604 95.8624832,98.0327532 C96.0838564,98.151346 96.2861229,98.351636 96.468624,98.6323055 L101.386929,106.119462 C101.570089,106.40079 101.79278,106.616234 102.056979,106.766451 C102.321177,106.917987 102.641377,106.993095 103.020215,106.993095 L106.934435,106.993095 L101.078588,98.3569068 C100.678667,97.7744845 100.205614,97.3271263 99.6548162,97.0135143 C100.475083,96.7552456 101.205087,96.4093501 101.846806,95.9791219 C102.488524,95.547576 103.027463,95.0455333 103.464279,94.4756292 C103.901096,93.9044074 104.23645,93.2666418 104.466388,92.5656268 C104.698962,91.8652707 104.81426,91.1214305 104.81426,90.3341064 C104.81426,89.3425391 104.644936,88.4333279 104.305629,87.6097671 C103.966322,86.7842297 103.431996,86.0759673 102.704627,85.4823447 C101.976599,84.8893809 101.043669,84.4288456 99.9064964,84.0994213 C98.7686647,83.7699969 97.4015537,83.6059436 95.8064811,83.6059436 L88.6737852,83.6059436 L88.6737852,106.993095 L93.0241631,106.993095 L93.0241631,97.8555229 L94.8847518,97.8555229 Z M93.0241631,86.9693661 L95.8064811,86.9693661 C97.4127541,86.9693661 98.6072468,87.2889078 99.3886413,87.9253556 C100.170695,88.5611446 100.561392,89.4716734 100.561392,90.6582599 C100.561392,91.2512237 100.464541,91.7967504 100.270181,92.2915458 C100.076479,92.7863412 99.781974,93.2159105 99.3886413,93.5776184 C98.9946498,93.9393263 98.493266,94.2213136 97.8844898,94.4268744 C97.2750548,94.6304586 96.5608628,94.7345567 95.7419139,94.7345567 L93.0241631,94.7345567 L93.0241631,86.9693661 Z M109.715436,83.6059436 L109.715436,106.993095 L124.466399,106.993095 L124.466399,103.515692 L114.098097,103.515692 L114.098097,96.9008512 L122.265844,96.9008512 L122.265844,93.553241 L114.098097,93.553241 L114.098097,87.0681934 L124.466399,87.0681934 L124.466399,83.6059436 L109.715436,83.6059436 Z M141.834968,85.8058394 C141.01536,85.0303745 140.024451,84.4262102 138.860925,83.9946643 C137.694763,83.5624596 136.423843,83.3470161 135.042897,83.3470161 C133.824685,83.3470161 132.74022,83.5361057 131.791478,83.913626 C130.843395,84.2911463 130.042235,84.7925301 129.391293,85.4171186 C128.737715,86.0436837 128.240943,86.7605111 127.902295,87.5695773 C127.562329,88.3766669 127.393005,89.208134 127.393005,90.0593665 C127.393005,91.1267013 127.547175,92.0240532 127.854199,92.752081 C128.161881,93.4801088 128.568391,94.0855908 129.075704,94.5711622 C129.5817,95.0573926 130.158192,95.4500664 130.804523,95.7524779 C131.451512,96.0548895 132.109702,96.3131581 132.778434,96.5299194 C133.446506,96.744704 134.104696,96.9443352 134.751685,97.1268363 C135.398016,97.3106551 135.974509,97.5346636 136.481822,97.7988619 C136.988477,98.0624014 137.395645,98.3885315 137.702669,98.7772522 C138.009692,99.1646552 138.163863,99.6660391 138.163863,100.280745 C138.163863,101.380363 137.824556,102.225007 137.144624,102.812042 C136.466669,103.399735 135.506067,103.693581 134.266114,103.693581 C133.457707,103.693581 132.765257,103.582895 132.188764,103.362839 C131.612272,103.141466 131.10957,102.895056 130.684613,102.625587 C130.258996,102.356777 129.887406,102.111685 129.575111,101.890312 C129.262158,101.670257 128.972265,101.55957 128.703455,101.55957 C128.497235,101.55957 128.31144,101.610302 128.14541,101.711764 C127.976744,101.814545 127.834433,101.942361 127.717158,102.09192 L126.454145,104.178494 C126.907433,104.642982 127.421994,105.062669 127.999145,105.440848 C128.575638,105.818368 129.196273,106.141204 129.859734,106.410673 C130.522536,106.680142 131.214986,106.887679 131.937084,107.033285 C132.659841,107.179549 133.392481,107.252023 134.136321,107.252023 C135.4303,107.252023 136.579332,107.054368 137.581441,106.660377 C138.584867,106.267703 139.434782,105.727447 140.129208,105.043562 C140.824953,104.359677 141.35269,103.555882 141.714398,102.634152 C142.075447,101.711764 142.255313,100.722832 142.255313,99.6660391 C142.255313,98.6948961 142.10246,97.8706764 141.794778,97.1920623 C141.487754,96.5127893 141.080586,95.9382732 140.573931,95.4685141 C140.067277,95.0013904 139.490784,94.6120109 138.843136,94.3043285 C138.196805,93.9979639 137.535321,93.7291536 136.861978,93.4959212 C136.187976,93.2640064 135.528468,93.0465864 134.881479,92.8410256 C134.234489,92.6367825 133.656679,92.4042089 133.151342,92.1459402 C132.64337,91.8870127 132.237519,91.5747184 131.929178,91.2077397 C131.622154,90.8414198 131.468643,90.3828612 131.468643,89.8333814 C131.468643,89.4024943 131.543751,89.0058674 131.695286,88.6435006 C131.845504,88.2831104 132.074783,87.9734515 132.381807,87.714524 C132.688171,87.4555965 133.067009,87.2526711 133.513709,87.1070655 C133.962385,86.9634365 134.486828,86.8889866 135.091651,86.8889866 C135.759724,86.8889866 136.338852,86.9720015 136.829694,87.140008 C137.321195,87.3073555 137.748788,87.4938097 138.116426,87.6987116 C138.482746,87.9022959 138.801628,88.0900678 139.06978,88.2560976 C139.339249,88.4227863 139.581705,88.507119 139.797149,88.507119 C140.01391,88.507119 140.199046,88.4583642 140.355852,88.3615134 C140.511341,88.2640038 140.64904,88.0973151 140.768292,87.8594707 L141.834968,85.8058394 Z M145.58777,83.6059436 L145.58777,106.993095 L160.338074,106.993095 L160.338074,103.515692 L149.970431,103.515692 L149.970431,96.9008512 L158.138837,96.9008512 L158.138837,93.553241 L149.970431,93.553241 L149.970431,87.0681934 L160.338074,87.0681934 L160.338074,83.6059436 L145.58777,83.6059436 Z M175.475123,83.6059436 L171.028553,83.6059436 L161.841567,106.993095 L165.22146,106.993095 C165.58778,106.993095 165.898098,106.890315 166.152414,106.685413 C166.404094,106.481829 166.574736,106.253867 166.661045,106.00614 L168.407653,101.234758 L178.095364,101.234758 L179.84263,106.00614 C179.950682,106.287468 180.124618,106.52136 180.369051,106.710449 C180.610848,106.89888 180.921166,106.993095 181.298027,106.993095 L184.662767,106.993095 L175.475123,83.6059436 Z M172.371286,90.4151447 C172.510962,90.0593665 172.654591,89.6442918 172.798879,89.1699207 C172.944485,88.6948908 173.092726,88.1836243 173.244261,87.6328268 C173.395796,88.1836243 173.548649,88.6922554 173.704137,89.1613557 C173.860943,89.630456 174.004572,90.0382833 174.133707,90.3828612 L176.979274,98.1625464 L169.524401,98.1625464 L172.371286,90.4151447 Z M193.42809,97.8555229 C193.858977,97.8555229 194.185107,97.9141604 194.406481,98.0327532 C194.627195,98.151346 194.829461,98.351636 195.011962,98.6323055 L199.92895,106.119462 C200.112769,106.40079 200.337436,106.616234 200.601635,106.766451 C200.864515,106.917987 201.185375,106.993095 201.563554,106.993095 L205.477115,106.993095 L199.622586,98.3569068 C199.223323,97.7744845 198.748952,97.3271263 198.198814,97.0135143 C199.018421,96.7552456 199.749743,96.4093501 200.390144,95.9791219 C201.032522,95.547576 201.570142,95.0455333 202.007618,94.4756292 C202.444434,93.9044074 202.778471,93.2666418 203.010385,92.5656268 C203.242959,91.8652707 203.357599,91.1214305 203.357599,90.3341064 C203.357599,89.3425391 203.188933,88.4333279 202.848968,87.6097671 C202.509002,86.7842297 201.975993,86.0759673 201.247965,85.4823447 C200.519279,84.8893809 199.587667,84.4288456 198.449176,84.0994213 C197.312003,83.7699969 195.945551,83.6059436 194.349161,83.6059436 L187.217783,83.6059436 L187.217783,106.993095 L191.56816,106.993095 L191.56816,97.8555229 L193.42809,97.8555229 Z M191.56816,86.9693661 L194.349161,86.9693661 C195.956751,86.9693661 197.150585,87.2889078 197.93198,87.9253556 C198.713374,88.5611446 199.105389,89.4716734 199.105389,90.6582599 C199.105389,91.2512237 199.008539,91.7967504 198.814178,92.2915458 C198.619818,92.7863412 198.325312,93.2159105 197.93198,93.5776184 C197.538647,93.9393263 197.036604,94.2213136 196.429146,94.4268744 C195.819711,94.6304586 195.104201,94.7345567 194.285911,94.7345567 L191.56816,94.7345567 L191.56816,86.9693661 Z M223.170496,101.567476 C223.051904,101.625455 222.93924,101.703858 222.831189,101.800709 C222.475411,102.124862 222.116997,102.396308 221.755948,102.61834 C221.39424,102.839054 221.012767,103.020238 220.606916,103.160572 C220.203042,103.300907 219.760954,103.40237 219.280654,103.467596 C218.801012,103.531504 218.265368,103.565106 217.673063,103.565106 C216.679519,103.565106 215.752519,103.377334 214.890745,103.006402 C214.027653,102.634152 213.277883,102.097191 212.642094,101.397493 C212.004329,100.69582 211.502286,99.8340455 211.130695,98.808877 C210.759105,97.7843673 210.571992,96.6149108 210.571992,95.2998489 C210.571992,94.0269532 210.759105,92.8825331 211.130695,91.8619765 C211.502286,90.8433964 212.020141,89.9789869 212.682284,89.2674303 C213.345745,88.5552149 214.137681,88.0083705 215.060728,87.6249206 C215.981798,87.2414706 216.993131,87.0504045 218.091432,87.0504045 C219.030291,87.0504045 219.804438,87.148573 220.413873,87.3435922 C221.023308,87.5372937 221.525351,87.7461487 221.92659,87.9734515 C222.325852,88.2000955 222.6533,88.4096094 222.912886,88.6039697 C223.170496,88.7976712 223.424812,88.8951808 223.67188,88.8951808 C223.909725,88.8951808 224.096179,88.846426 224.229925,88.7489164 C224.36433,88.6520657 224.475676,88.5380849 224.561985,88.4096094 L226.017381,86.3882616 C225.090381,85.4711442 223.977586,84.7358691 222.678336,84.1798008 C221.378428,83.6257091 219.859782,83.3470161 218.125033,83.3470161 C216.3468,83.3470161 214.720762,83.6415215 213.248235,84.2292145 C211.777026,84.8169075 210.512037,85.6391507 209.455243,86.6952851 C208.399768,87.7520784 207.58016,89.0117971 206.998397,90.4718057 C206.415974,91.933791 206.124104,93.5426994 206.124104,95.2998489 C206.124104,97.0359152 206.386326,98.6362586 206.908134,100.102197 C207.431919,101.570112 208.184324,102.831148 209.16535,103.887941 C210.146376,104.944735 211.329668,105.769613 212.714568,106.362577 C214.100126,106.955541 215.661598,107.252023 217.397664,107.252023 C219.337973,107.252023 221.000908,106.938411 222.386466,106.313163 C223.772684,105.687916 224.938846,104.787929 225.887588,103.612543 L224.174582,101.752613 C224.001304,101.570112 223.795744,101.478532 223.559876,101.478532 C223.419541,101.478532 223.289748,101.50818 223.170496,101.567476 L223.170496,101.567476 Z M248.90249,83.6059436 L244.519829,83.6059436 L244.519829,93.6652453 L233.55461,93.6652453 L233.55461,83.6059436 L229.17129,83.6059436 L229.17129,106.993095 L233.55461,106.993095 L233.55461,96.771058 L244.519829,96.771058 L244.519829,106.993095 L248.90249,106.993095 L248.90249,83.6059436 L248.90249,83.6059436 Z" id="Fill-1" fill="#FFFFFF"></path>
            <path d="M96.2913937,70.2339508 C97.8120164,70.2339508 99.1382788,70.0461789 100.270181,69.6693175 C101.402083,69.2911383 102.345554,68.7627417 103.100595,68.0841275 C103.854977,67.4041957 104.420928,66.593153 104.799107,65.6496816 C105.175968,64.7062103 105.364399,63.6685237 105.364399,62.5359628 C105.364399,61.4475448 105.18651,60.4441182 104.830731,59.5276597 C104.474953,58.6112012 103.925473,57.8245359 103.182292,57.1670049 C102.437793,56.508815 101.493663,55.9962308 100.351219,55.6299109 C99.207458,55.263591 97.8548416,55.0797722 96.2913937,55.0797722 L88.6737852,55.0797722 L88.6737852,78.4669239 L93.0241631,78.4669239 L93.0241631,70.2339508 L96.2913937,70.2339508 Z M93.0241631,58.4445125 L96.2913937,58.4445125 C97.0892594,58.4445125 97.7850037,58.5387278 98.3786263,58.7271585 C98.9702724,58.9155893 99.4617735,59.1876938 99.8498354,59.5434721 C100.237897,59.8999092 100.52845,60.3314551 100.723469,60.8387686 C100.917829,61.3454232 101.014021,61.9107154 101.014021,62.5359628 C101.014021,63.1941526 100.917829,63.7897518 100.723469,64.3234193 C100.52845,64.8570867 100.237897,65.3097157 99.8498354,65.6819652 C99.4617735,66.0535559 98.9702724,66.3401551 98.3786263,66.5391274 C97.7850037,66.7387585 97.0892594,66.8382447 96.2913937,66.8382447 L93.0241631,66.8382447 L93.0241631,58.4445125 Z M117.608443,55.0797722 L113.160555,55.0797722 L103.974228,78.4669239 L107.353463,78.4669239 C107.719783,78.4669239 108.030101,78.3641435 108.284416,78.1585827 C108.537414,77.9543396 108.707397,77.7283545 108.793706,77.4793097 L110.540314,72.7092453 L120.228684,72.7092453 L121.975951,77.4793097 C122.083343,77.761297 122.257279,77.9958471 122.501053,78.183619 C122.743509,78.3720497 123.052509,78.4669239 123.430689,78.4669239 L126.794111,78.4669239 L117.608443,55.0797722 Z M114.503289,61.8889734 C114.642965,61.5331951 114.785935,61.1187793 114.930882,60.6444082 C115.077146,60.1687195 115.225387,59.656794 115.376922,59.1066554 C115.527799,59.656794 115.680652,60.1660841 115.837458,60.6351843 C115.993605,61.1049434 116.135257,61.5121119 116.267027,61.8566898 L119.112594,69.636375 L111.655745,69.636375 L114.503289,61.8889734 Z M135.560093,69.3293515 C135.992298,69.3293515 136.31711,69.3886479 136.539142,69.5065818 C136.759197,69.6245157 136.962123,69.8254646 137.144624,70.1054753 L142.061612,77.5939494 C142.24543,77.8746189 142.468121,78.0894036 142.732978,78.24028 C142.997177,78.3918152 143.318036,78.4669239 143.695556,78.4669239 L147.609776,78.4669239 L141.755247,69.8307354 C141.355326,69.2483131 140.880955,68.8016137 140.331475,68.4880018 C141.150424,68.2290742 141.881087,67.8831787 142.522147,67.4522916 C143.163865,67.0214046 143.702145,66.5200208 144.13962,65.9481401 C144.575778,65.3769183 144.910473,64.7411293 145.143706,64.0401143 C145.374303,63.3390993 145.49026,62.5952592 145.49026,61.807935 C145.49026,60.8170266 145.319618,59.9078154 144.98097,59.0829368 C144.641004,58.2580583 144.107337,57.549796 143.379968,56.9561733 C142.651281,56.3632095 141.71901,55.9020154 140.581837,55.5739088 C139.443347,55.2444844 138.076895,55.0797722 136.481822,55.0797722 L129.349785,55.0797722 L129.349785,78.4669239 L133.700163,78.4669239 L133.700163,69.3293515 L135.560093,69.3293515 Z M133.700163,58.4445125 L136.481822,58.4445125 C138.088754,58.4445125 139.283247,58.7627364 140.064641,59.3985254 C140.846036,60.0349732 141.237392,60.9455021 141.237392,62.1320885 C141.237392,62.7243935 141.140541,63.2699202 140.945522,63.7653744 C140.75182,64.2608286 140.458633,64.6897391 140.064641,65.0507882 C139.67065,65.4124961 139.168607,65.6944834 138.56049,65.9000441 C137.950396,66.1049461 137.236863,66.2077265 136.418573,66.2077265 L133.700163,66.2077265 L133.700163,58.4445125 Z M147.511608,55.0797722 L147.511608,58.6546852 L154.579737,58.6546852 L154.579737,78.4669239 L158.930773,78.4669239 L158.930773,58.6546852 L165.965301,58.6546852 L165.965301,55.0797722 L147.511608,55.0797722 Z M196.549056,62.0102015 C195.977835,60.549534 195.174039,59.2884976 194.139647,58.2257747 C193.103937,57.1643695 191.859372,56.3309259 190.401998,55.7267617 C188.94726,55.1232563 187.336375,54.8208447 185.568025,54.8208447 C183.798358,54.8208447 182.184179,55.1206209 180.72417,55.7188555 C179.262185,56.3177489 178.01169,57.1505337 176.970709,58.2178685 C175.931046,59.2852034 175.124615,60.549534 174.553393,62.0102015 C173.980854,63.4721868 173.695572,65.0586944 173.695572,66.7736775 C173.695572,68.4880018 173.980854,70.0758271 174.553393,71.5364946 C175.124615,72.9971621 175.931046,74.2614928 176.970709,75.3294865 C178.01169,76.3968213 179.262185,77.2296061 180.72417,77.8278407 C182.184179,78.4260753 183.798358,78.7251926 185.568025,78.7251926 C187.336375,78.7251926 188.94726,78.4260753 190.401998,77.8278407 C191.859372,77.2296061 193.103937,76.3968213 194.139647,75.3294865 C195.174039,74.2614928 195.977835,72.9971621 196.549056,71.5364946 C197.120278,70.0758271 197.406219,68.4880018 197.406219,66.7736775 C197.406219,65.0586944 197.120278,63.4721868 196.549056,62.0102015 L196.549056,62.0102015 Z M192.43257,70.2260446 C192.093263,71.2459424 191.605056,72.1083753 190.969267,72.8146611 C190.333478,73.520288 189.559331,74.0631793 188.648802,74.4400408 C187.736955,74.8169022 186.710469,75.0053329 185.568025,75.0053329 C184.424264,75.0053329 183.394484,74.8169022 182.478684,74.4400408 C181.561567,74.0631793 180.782149,73.520288 180.141748,72.8146611 C179.498711,72.1083753 179.006551,71.2459424 178.661974,70.2260446 C178.316737,69.2081234 178.144119,68.0564559 178.144119,66.7736775 C178.144119,65.4908991 178.316737,64.3392316 178.661974,63.3206516 C179.006551,62.3020715 179.498711,61.4363443 180.141748,60.7241289 C180.782149,60.0125723 181.561567,59.4690222 182.478684,59.090843 C183.394484,58.7139816 184.424264,58.524892 185.568025,58.524892 C186.710469,58.524892 187.736955,58.7139816 188.648802,59.090843 C189.559331,59.4690222 190.333478,60.0125723 190.969267,60.7241289 C191.605056,61.4363443 192.093263,62.3020715 192.43257,63.3206516 C192.772536,64.3392316 192.94186,65.4908991 192.94186,66.7736775 C192.94186,68.0564559 192.772536,69.2081234 192.43257,70.2260446 L192.43257,70.2260446 Z M200.834208,55.0797722 L200.834208,78.4669239 L205.217529,78.4669239 L205.217529,68.9406308 L213.968357,68.9406308 L213.968357,65.4632275 L205.217529,65.4632275 L205.217529,58.5420221 L215.584513,58.5420221 L215.584513,55.0797722 L200.834208,55.0797722 L200.834208,55.0797722 Z" id="Fill-2" fill="#FFFFFF"></path>
            <path d="M97.3580697,49.9407525 C98.7179334,49.9407525 99.9249442,49.7681342 100.981079,49.4228975 C102.038531,49.0776608 102.927976,48.6006543 103.649416,47.9912193 C104.372173,47.3824431 104.92297,46.6577095 105.300491,45.8163598 C105.677352,44.9756689 105.866442,44.0592103 105.866442,43.0676431 C105.866442,40.3176087 104.25951,38.5815424 101.045646,37.8594443 C101.769062,37.6117171 102.391674,37.3093056 102.914799,36.9535273 C103.437266,36.597749 103.869471,36.2011221 104.208778,35.7649643 C104.547427,35.3281476 104.798448,34.8590474 104.960525,34.3576635 C105.122601,33.8562797 105.202981,33.3305184 105.202981,32.7803798 C105.202981,31.8210961 105.041563,30.9586632 104.718068,30.1924221 C104.393915,29.4274988 103.884625,28.7752386 103.189539,28.2363004 C102.493795,27.6967033 101.604349,27.2816287 100.521202,26.9910764 C99.4373961,26.6992064 98.1295815,26.5536009 96.599076,26.5536009 L88.5288385,26.5536009 L88.5288385,49.9407525 L97.3580697,49.9407525 Z M97.2776902,39.6864316 C98.0432723,39.6864316 98.6961914,39.7628581 99.2351296,39.9137344 C99.7747267,40.0639519 100.216814,40.2820309 100.561392,40.56863 C100.90597,40.8539115 101.159627,41.1984894 101.321703,41.6023636 C101.483121,42.0082144 101.56416,42.46282 101.56416,42.9701335 C101.56416,43.4550461 101.491686,43.9136048 101.345422,44.3444918 C101.199816,44.7760377 100.96329,45.1528992 100.633865,45.4763939 C100.3051,45.8005474 99.8682832,46.0588161 99.324733,46.2531765 C98.7785475,46.4475368 98.1032276,46.5437287 97.2948202,46.5437287 L92.8792164,46.5437287 L92.8792164,39.6864316 L97.2776902,39.6864316 Z M92.8792164,29.9183411 L96.599076,29.9183411 C98.0656732,29.9183411 99.1435496,30.1766098 99.8340231,30.6944648 C100.523838,31.2116611 100.868415,32.0800236 100.868415,33.2982348 C100.868415,34.4736209 100.485624,35.330783 99.7200422,35.8697212 C98.9544601,36.4093183 97.8337585,36.6787874 96.3566197,36.6787874 L92.8792164,36.6787874 L92.8792164,29.9183411 Z M109.602114,26.5536009 L109.602114,49.9407525 L124.3511,49.9407525 L124.3511,46.4626903 L113.984775,46.4626903 L113.984775,39.8485084 L122.151863,39.8485084 L122.151863,36.5015571 L113.984775,36.5015571 L113.984775,30.014533 L124.3511,30.014533 L124.3511,26.5536009 L109.602114,26.5536009 L109.602114,26.5536009 Z" id="Fill-3" fill="#FFFFFF"></path>
            <g id="Group-9" stroke="#FFFFFF" stroke-width="3.424">
                <path d="M75.5831208,38.1809624 L75.5831208,38.1809624 C75.5633553,39.5171075 75.5060355,40.8156983 75.4315856,42.0385214 C75.3571357,42.9602507 75.0375941,45.462558 74.4723019,48.37994 C72.3461972,46.5924835 70.3887578,45.7656284 68.4695316,45.7656284 C66.1925505,45.7656284 64.0111025,46.9304729 61.6959083,49.0005755 C59.1744944,51.2597676 55.8637797,52.6314905 52.213758,52.6314905 C49.8610094,52.6314905 47.6413482,52.0681749 45.6832499,51.0502537 C43.7264693,50.0349679 42.033887,48.5677119 40.7530852,46.7987032 C38.5894261,43.8259779 36.4461914,42.6044725 34.4505387,42.6044725 C34.2443191,42.6044725 34.0170163,42.6216025 33.8121143,42.6407091 L33.7910312,42.6407091 C32.3231163,42.8469288 30.9316279,43.6751016 29.6719092,44.9354791 C28.2593377,46.3473918 26.3967724,47.2888866 24.308881,47.5326606 L24.2897744,47.5530849 C23.8944651,47.9846308 23.5176037,48.4372598 23.1796143,48.9070189 C20.8084179,52.1426248 18.4760936,53.47877 16.2939867,53.47877 C14.4123149,53.47877 12.6433062,52.4997208 11.0818348,50.9395671 C9.33061503,49.189665 6.92186425,48.0775285 4.25155054,48.022844 C3.7244716,48.1348483 3.21518157,48.37994 2.74476361,48.737036 C2.10502154,49.2456672 1.5225993,49.9420702 0.977072595,50.8433752 C0.693767662,51.2966631 0.563315623,51.7657634 0.468441413,52.2743946 C0.3748849,52.7830257 0.336012828,53.2903392 0.336012828,53.8352071 C0.336012828,55.2846742 0.581104537,56.9785741 0.977072595,58.7475829 C1.18329223,59.7068665 1.44749055,60.6852568 1.7472667,61.6629883 C2.2750045,63.3944426 2.89432226,65.1074492 3.59204301,66.6109419 C3.7989215,67.1017841 4.02424775,67.5544132 4.25155054,67.9859591 C4.02424775,67.5544132 3.7989215,67.1017841 3.59204301,66.6109419 C2.89432226,65.1074492 2.2750045,63.3944426 1.7472667,61.6629883 C4.19423071,59.0671245 6.86717981,56.5272628 10.0843379,55.9619706 C10.4131034,55.9053096 10.7464808,55.8782968 11.0864468,55.8782968 C13.6243319,55.8782968 16.4468396,57.3653183 19.3497269,58.851681 C22.2532731,60.3380436 25.2352222,61.8244062 28.0886959,61.8244062 C28.3159986,61.8244062 28.5419837,61.8151823 28.7679688,61.7967346 C34.4314321,61.2861268 40.0191278,52.7830257 46.1727745,52.7830257 C52.3079734,52.7830257 57.8765625,61.2861268 63.5578146,61.7967346 C63.7837997,61.8151823 64.0097848,61.8244062 64.2351111,61.8244062 C68.3707043,61.8244062 72.7922378,58.6915807 76.8428395,56.9785741 C76.7868373,57.3356701 76.7295175,57.7125316 76.6550676,58.0696276 C76.5048501,58.8595871 76.3151017,59.6877599 76.1108586,60.4981438 C75.5060355,62.8686814 74.6785215,65.2392189 73.7758988,67.215765 C73.17437,68.5308269 72.5537345,69.6416458 71.8382249,70.4889252 C71.4060201,70.9771321 70.9718388,71.4119722 70.3696512,71.674194 C69.8992332,71.8632836 69.4479218,71.9561812 68.9972694,71.9937356 C68.6395145,73.1803221 68.2435465,74.3458254 67.8482372,75.4941987 C68.2435465,74.3458254 68.6395145,73.1803221 68.9972694,71.9937356 C69.4479218,71.9561812 69.8992332,71.8632836 70.3696512,71.674194 C70.9718388,71.4119722 71.4060201,70.9771321 71.8382249,70.4889252 C72.5537345,69.6416458 73.17437,68.5308269 73.7758988,67.215765 C74.6785215,65.2392189 75.5060355,62.8686814 76.1108586,60.4981438 C76.3151017,59.6877599 76.5048501,58.8595871 76.6550676,58.0696276 C76.7295175,57.7125316 76.9594557,56.7446829 77.0154578,56.3889046 C77.1841231,55.3169578 77.1070378,54.8702584 77.1070378,53.931399 C77.1070378,53.3292113 77.0694834,52.7632603 76.9746092,52.237499 C76.8612872,51.7091024 76.7123874,51.2037655 76.4106347,50.7116055 C75.8466602,49.8478549 75.2616026,49.1692407 74.6231782,48.6625861 C74.5658584,48.6250317 74.4914085,48.5861596 74.4354064,48.5505818 C74.4531953,48.493262 74.4531953,48.4372598 74.4723019,48.37994 C75.0375941,45.462558 75.3571357,42.9602507 75.4315856,42.0385214 C75.5060355,40.8156983 75.5633553,39.5171075 75.5831208,38.1809624 L75.5831208,38.1809624 Z M112.743504,137.605182 C111.614237,138.283137 110.354519,138.733789 109.000585,138.940668 C110.882257,139.186418 112.667737,139.808372 114.098097,140.183915 C113.665233,139.297105 113.213263,138.434013 112.743504,137.605182 Z M38.2606606,136.450879 C37.2453748,136.450879 36.6333044,136.937109 36.6333044,138.451802 C36.6333044,139.966495 37.2453748,140.455361 38.2619783,140.455361 C39.1896373,140.455361 40.4546268,140.048851 41.9021173,139.642342 C43.3476313,139.234514 44.9763053,138.827346 46.6293566,138.827346 C46.6655933,138.827346 46.7024888,138.827346 46.7367489,138.828664 C45.7583586,138.639574 44.8175227,138.300926 43.9531133,137.850932 C43.8957934,137.81206 43.8200258,137.775165 43.7640237,137.736292 C41.5502921,137.259945 39.5691341,136.450879 38.2606606,136.450879 L38.2606606,136.450879 Z M94.8867283,133.822072 C92.8943699,133.822072 90.8427151,134.972422 88.5275208,137.548521 C85.9692114,140.388158 82.2618699,142.179568 78.1414302,142.179568 C76.0910931,142.179568 74.1336537,141.726939 72.364645,140.936321 C70.5969539,140.128572 69.0532715,138.959774 67.7731285,137.548521 C65.4408042,134.972422 63.3898082,133.822072 61.4145799,133.822072 C59.6633601,133.822072 57.9892256,134.708224 56.2202169,136.29012 C54.2825429,138.019597 51.7420224,139.071779 48.9583867,139.071779 L48.6941884,139.071779 L48.7324016,139.071779 C51.4415874,139.769499 53.7185684,144.867671 57.3119291,145.490941 C57.4904771,145.519272 57.669684,145.533108 57.8541616,145.533108 C59.2410381,145.533108 60.7866971,144.718771 62.3738636,143.905093 C63.9623477,143.08812 65.5949748,142.273783 67.1551284,142.275101 C67.2803097,142.275101 67.4061498,142.280372 67.5300133,142.290255 C70.6154017,142.573559 73.6823423,147.220419 77.0299525,147.220419 C80.3788803,147.220419 83.4477975,142.573559 86.5318682,142.290255 C86.6583671,142.280372 86.7822307,142.275101 86.9074119,142.275101 C88.4682244,142.275101 90.0995338,143.08812 91.688018,143.905093 C93.2758433,144.718771 94.8215023,145.533108 96.2083788,145.533108 C96.3915387,145.533108 96.5727221,145.519272 96.7506112,145.490941 C100.343972,144.867671 97.8798779,139.688461 105.074505,138.968998 C105.282702,138.913655 105.726107,138.978222 105.934303,138.959774 L105.955386,138.968998 C103.713983,138.705459 101.661669,137.718504 100.081091,136.29012 C98.3127414,134.708224 96.6188415,133.822072 94.8867283,133.822072 L94.8867283,133.822072 Z M29.825421,135.870433 C28.3996724,135.870433 27.2440518,137.026054 27.2440518,138.451802 C27.2440518,139.878868 28.3996724,141.034489 29.825421,141.034489 C31.2524872,141.034489 32.4081078,139.878868 32.4081078,138.451802 C32.4081078,137.026054 31.2524872,135.870433 29.825421,135.870433 L29.825421,135.870433 Z M46.1727745,52.7830257 C40.0211043,52.7830257 34.4314321,61.2861268 28.7679688,61.7967346 C28.5426426,61.8151823 28.3159986,61.8244062 28.0886959,61.8244062 C25.2345634,61.8244062 22.2526142,60.3380436 19.3497269,58.8529986 C16.4468396,57.3653183 13.6243319,55.8782968 11.0864468,55.8782968 C10.7464808,55.8782968 10.4131034,55.9053096 10.0843379,55.9619706 C6.86717981,56.5272628 4.19423071,59.0671245 1.7485844,61.6629883 C2.2763222,63.3944426 2.89629881,65.1061315 3.59204301,66.6129184 C3.8002392,67.1017841 4.02424775,67.5544132 4.25155054,67.9872768 C4.59019877,68.6257011 4.92818814,69.1903345 5.26683636,69.6976479 C5.56793021,70.1305115 5.86836521,70.5264796 6.20701343,70.8453624 C6.54697935,71.1853283 6.61352307,72.0293134 7.06549326,72.2170853 C7.47925024,72.3864094 8.21979615,71.9364158 8.63487082,71.9752878 C8.76729941,71.9937356 8.91817576,71.9937356 9.0473101,71.9937356 C9.19884529,71.9937356 9.34972164,71.9752878 9.50059799,71.9561812 L9.52036345,72.0326077 C10.4223273,75.3426635 11.6260438,78.5222672 13.1315131,81.4587558 L12.0220119,79.0111329 C10.5178604,76.0772797 10.4223273,75.3426635 9.52036345,72.0326077 L9.50059799,71.9561812 C9.34972164,71.9752878 9.19884529,71.9937356 9.0473101,71.9937356 C8.91817576,71.9937356 9.19555105,71.0377462 9.06378132,71.0179807 C11.8849714,67.1992937 15.4842617,65.2761144 20.1508869,63.9393105 C22.04903,63.3944426 24.0835547,63.0953253 26.1714462,63.0953253 C28.9728708,63.0953253 31.6464787,63.6210866 34.0927839,64.598818 C36.5397479,65.5594194 38.7956458,66.9509078 40.7168485,68.6823621 C41.7703476,69.623198 42.8238466,70.4520297 43.858239,71.1464562 C46.2854376,72.7659063 48.6757406,73.6494223 51.1398347,73.6494223 C54.1698798,73.6494223 57.2552681,72.3132772 60.6239615,69.3978718 C61.6768016,68.4748248 62.7678551,67.402878 63.8793328,66.1609482 C67.2664739,62.3798156 71.6689008,59.5375424 76.6550676,58.0696276 C76.5041912,58.8609048 76.3164194,59.6877599 76.108882,60.4961673 C75.5073532,62.8673637 74.6785215,65.2392189 73.7758988,67.2144473 C73.17437,68.5321446 72.5537345,69.6429635 71.837566,70.4889252 C71.4053613,70.9771321 70.9731565,71.4106545 70.3696512,71.674194 C69.8992332,71.861307 69.4479218,71.9561812 68.9972694,71.9937356 C68.6395145,73.1790044 68.2435465,74.3478019 67.8482372,75.4941987 C67.736233,75.7926571 67.6222522,76.0772797 67.5300133,76.3605847 C67.6222522,76.0772797 67.736233,75.7926571 67.8482372,75.4941987 C68.2435465,74.3478019 68.6395145,73.1790044 68.9972694,71.9937356 C69.4479218,71.9561812 69.8992332,71.861307 70.3696512,71.674194 C70.9731565,71.4106545 71.4053613,70.9771321 71.837566,70.4889252 C72.5537345,69.6429635 73.17437,68.5321446 73.7758988,67.2144473 C74.6785215,65.2392189 75.5073532,62.8673637 76.108882,60.4961673 C76.3164194,59.6877599 76.5041912,58.8609048 76.6550676,58.0696276 C76.7295175,57.7112139 76.7868373,57.3369878 76.8428395,56.9785741 C72.7922378,58.690263 68.3707043,61.8244062 64.2351111,61.8244062 C64.0097848,61.8244062 63.7837997,61.8151823 63.5578146,61.7967346 C57.878539,61.2861268 52.3073145,52.7830257 46.1727745,52.7830257 L46.1727745,52.7830257 Z" id="Stroke-4"></path>
                <path d="M76.6550676,58.0696276 C71.6689008,59.5375424 67.2664739,62.3784979 63.8793328,66.1609482 C62.7678551,67.402878 61.6768016,68.4748248 60.6239615,69.3965541 C57.2552681,72.3132772 54.1698798,73.6494223 51.1398347,73.6494223 C48.6757406,73.6494223 46.2854376,72.7645886 43.858239,71.1477739 C42.8238466,70.4520297 41.7703476,69.623198 40.7168485,68.6823621 C38.7956458,66.9509078 36.5397479,65.5581017 34.0927839,64.598818 C31.6464787,63.6210866 28.9728708,63.0940076 26.1714462,63.0940076 C24.0835547,63.0940076 22.04903,63.3944426 20.1508869,63.941287 C15.4842617,65.2761144 11.4567197,68.1552832 8.63487082,71.9752878 C8.76729941,71.9917591 8.98471947,71.0990191 9.0473101,71.9917591 C9.05916937,72.1439531 9.34972164,71.9752878 9.50059799,71.9581578 L9.52036345,72.03129 C10.4223273,75.3426635 11.6260438,78.5222672 13.1315131,81.4561204 C13.9030249,83.0380161 14.7687521,84.544803 15.7478012,85.9758223 C15.9724686,86.3322595 16.2169015,86.7091209 16.4804409,87.0477691 C17.4034879,88.3641488 18.4194326,89.604102 19.4913794,90.7544518 C19.7555777,91.0364391 20.0191172,91.3171086 20.2997867,91.5806481 C20.4704285,93.2290875 20.5653028,94.724674 20.5666205,96.08322 C20.5653028,94.724674 20.4704285,93.2290875 20.2997867,91.5806481 C20.0191172,91.3171086 19.7555777,91.0364391 19.4913794,90.7544518 C18.4194326,89.604102 17.4034879,88.3641488 16.4804409,87.0477691 C16.2169015,86.7091209 15.9724686,86.3322595 15.7478012,85.9758223 C16.7637459,85.3914235 17.799456,84.9012401 18.8891917,84.544803 C21.9567912,81.2887728 25.1541838,77.7718385 28.8990797,75.8690836 C30.0481118,75.2682136 31.2696173,74.8340323 32.5313125,74.6284715 C33.0043659,74.5474331 33.4846666,74.508561 33.9735323,74.508561 C39.7022216,74.508561 46.4336785,79.7536554 53.0392954,82.0405192 C54.8979076,82.6914617 56.7262127,83.1006067 58.5275049,83.1006067 C58.8628589,83.1006067 59.1988718,83.0880886 59.5322492,83.0571227 C61.6003752,82.8706685 63.6724543,81.9489392 65.7412392,80.6496896 C64.7641666,82.8495853 63.6348999,84.9381357 62.3738636,86.8955751 C61.6214584,88.0808439 60.7939444,89.2107694 59.9282172,90.2827162 C60.7939444,89.2107694 61.6214584,88.0808439 62.3738636,86.8955751 C63.6348999,84.9381357 64.7641666,82.8495853 65.7412392,80.6496896 C66.4007467,79.2568835 66.9838278,77.8258641 67.5300133,76.3579493 C67.6222522,76.0772797 67.736233,75.7939748 67.8482372,75.492881 C68.2435465,74.3458254 68.6395145,73.1790044 68.9972694,71.9917591 C69.4479218,71.9581578 69.8992332,71.861307 70.3696512,71.6755117 C70.9731565,71.4119722 71.4053613,70.9771321 71.837566,70.4902429 C72.5537345,69.6416458 73.17437,68.5321446 73.7758988,67.2144473 C74.6785215,65.2379012 75.5073532,62.8673637 76.108882,60.4981438 C76.3164194,59.6877599 76.5041912,58.8609048 76.6550676,58.0696276 M33.9735323,74.508561 C33.4853254,74.508561 33.0043659,74.5474331 32.5306537,74.6284715 C31.2702761,74.8360088 30.0467941,75.2682136 28.9003974,75.8690836 C25.1548427,77.7705208 21.9567912,81.2874551 18.8898506,84.544803 C19.5118037,84.3570311 20.1502281,84.1870482 20.8077591,84.0724085 C21.361192,83.9781931 21.9238487,83.9333914 22.4937528,83.9333914 C26.7630923,83.9347091 31.5140501,86.4324045 36.3948012,88.9327352 C41.2735757,91.433066 46.2867553,93.9307613 51.0792206,93.9307613 C51.4765064,93.9307613 51.8731333,93.9136312 52.2691013,93.8767357 C54.8287284,93.6514095 57.3876967,92.4470341 59.9460062,90.8097951 C59.9288761,90.6417887 59.9288761,90.4520403 59.9288761,90.2827162 C60.7926267,89.2107694 61.6207995,88.0808439 62.3738636,86.8968928 C63.6335822,84.936818 64.7635077,82.8495853 65.7412392,80.6510073 C63.6717955,81.9476215 61.6023517,82.8693508 59.5315903,83.0584404 C59.1982129,83.0880886 58.8641766,83.1006067 58.5275049,83.1006067 C56.7255538,83.1006067 54.8972487,82.6914617 53.0392954,82.0418369 C46.4343374,79.7536554 39.7015627,74.508561 33.9735323,74.508561 M14.142187,107.99784 C12.9582359,108.691607 11.5680652,109.326078 9.9716748,109.944737 C9.9716748,109.947373 9.9716748,109.950008 9.9690394,109.953961 C11.5746536,109.331349 12.9556005,108.694243 14.142187,107.99784 M22.4944117,83.9347091 C21.9245076,83.9347091 21.3618508,83.9781931 20.8084179,84.0750439 C20.1495692,84.1883659 19.5111449,84.3557134 18.8891917,84.544803 C17.7981383,84.9012401 16.7637459,85.3914235 15.7464835,85.9758223 C15.9724686,86.3322595 16.2169015,86.7091209 16.4804409,87.0477691 C17.4034879,88.3641488 18.4194326,89.604102 19.4913794,90.7544518 C19.7555777,91.0364391 20.0191172,91.3171086 20.3004456,91.5806481 C20.4704285,93.2290875 20.5659616,94.724674 20.5679381,96.08322 C20.5692558,98.6402117 20.2404904,100.726127 19.4531662,102.494476 C19.0789401,103.397758 18.5683324,104.227907 17.9101426,104.978995 C17.0259676,106.050942 15.8591466,106.991778 14.4103384,107.839716 C15.9362319,108.235025 17.3079549,109.042774 18.400326,110.11472 C19.7918144,111.507526 21.3723924,112.373254 23.0280791,112.373254 C24.5717616,112.373254 26.1714462,111.656426 27.7902374,109.947373 C28.2593377,109.475637 28.7119667,108.929452 29.1626192,108.309475 C29.7654657,107.480643 30.4803166,106.70979 31.2518284,106.012728 L31.2696173,106.012728 C33.2652699,104.280615 35.7675772,103.114453 38.533424,102.776464 C39.1165051,102.683566 39.700245,102.643376 40.3004562,102.643376 C43.7264693,102.643376 46.8513886,103.90573 49.2588217,105.976492 C49.3523782,106.033153 49.427487,106.087178 49.5032546,106.162946 C51.7354339,108.183635 53.872739,109.314219 56.0811998,109.314219 C58.5439762,109.314219 61.0950383,107.909554 63.9728893,104.75301 L64.0111025,104.715455 C63.3898082,103.886624 62.881177,102.982025 62.4298657,102.041189 C60.8123922,98.730474 59.9829017,94.7991239 59.946665,90.8111128 C57.3870379,92.4470341 54.8293873,93.6514095 52.2691013,93.8780534 C51.8731333,93.9123136 51.4765064,93.9307613 51.0779029,93.9307613 C46.2860964,93.9307613 41.2742345,91.4304306 36.3941423,88.9327352 C31.5127324,86.4324045 26.7624335,83.9347091 22.4944117,83.9347091 M25.8888001,121.272982 L25.8888001,121.272982 C22.7651985,121.649843 20.2628912,124.077042 19.810921,127.161112 C19.73713,127.502396 19.7180233,127.858833 19.7180233,128.216588 C19.7180233,132.092595 22.8607316,135.233326 26.7360795,135.233326 C28.6737535,135.233326 30.4229967,134.443367 31.684692,133.183648 C32.7961697,132.075465 34.0361229,131.396192 35.3340548,131.396192 C36.8770784,131.396192 38.5149762,132.316603 40.1686864,134.594902 C41.1299467,135.893493 42.3349809,136.984546 43.7633648,137.736292 C43.8206847,137.775165 43.8951346,137.810742 43.9524544,137.850932 C44.8181816,138.300926 45.7590175,138.639574 46.7374078,138.828664 C47.376491,138.97954 48.0188685,139.05399 48.6955061,139.071779 L48.957069,139.071779 C51.7426812,139.071779 54.2832017,138.01828 56.2202169,136.287484 C57.9885667,134.706906 59.6640189,133.824708 61.4132622,133.824708 C63.3891494,133.824708 65.4401453,134.971105 67.7737873,137.548521 C69.0532715,138.961092 70.5962951,140.127254 72.3639861,140.935662 C74.1343125,141.726939 76.0910931,142.17825 78.1414302,142.17825 C82.261211,142.17825 85.9672348,140.389476 88.5275208,137.548521 C90.8420562,134.971105 92.893711,133.824708 94.888046,133.824708 C96.6175238,133.824708 98.3114237,134.706906 100.079774,136.287484 C101.662328,137.718504 103.693559,138.697553 105.933644,138.961092 C106.382979,139.036201 106.87448,139.071779 107.342921,139.071779 C107.908214,139.071779 108.454399,139.036201 108.999926,138.940668 C110.35386,138.733789 111.615555,138.283137 112.743504,137.605182 C112.669054,137.454305 112.593287,137.305405 112.499071,137.174295 C109.225911,131.490407 105.123919,127.217773 100.55085,123.812843 C100.043537,123.64286 99.5157991,123.550622 99.007168,123.532174 C98.8569505,123.493961 98.6876263,123.493961 98.53675,123.493961 C96.0159949,123.493961 93.4194723,124.941451 90.4658536,128.237012 C89.1106019,129.739846 87.5313416,131.000882 85.7419086,131.959507 C84.9526079,132.392371 84.1244351,132.769232 83.2593668,133.071644 C81.416567,133.749599 79.4024666,134.106036 77.3145751,134.106036 C75.0942551,134.106036 72.9490437,133.69162 70.9916043,132.939215 C70.6509795,132.825893 70.3129902,132.675017 69.9743419,132.523482 C67.7355741,131.508196 65.7596869,130.042258 64.1422134,128.237012 C61.2070425,124.941451 58.5900956,123.493961 56.089106,123.493961 C53.8681271,123.493961 51.7426812,124.622568 49.5032546,126.634692 C47.0576082,128.836564 43.8397913,130.17271 40.3004562,130.17271 C38.0070039,130.17271 35.842686,129.608735 33.9419075,128.631004 C32.4746515,127.858833 31.1569542,126.823123 30.0467941,125.583829 C29.7272525,125.243863 29.4439476,124.868319 29.1639369,124.491457 C28.0524592,122.964905 26.9607469,121.930513 25.8888001,121.272982" id="Stroke-6"></path>
                <path d="M44.3293159,0.0224233063 C42.3066504,0.158804983 39.2680403,5.87365845 36.7466264,6.51405937 C35.9059355,6.72554979 35.0579972,6.81185897 34.214012,6.81185897 C32.2111121,6.81185897 30.2385191,6.31838131 28.4859816,5.8255625 C26.7334441,5.33208483 25.2022798,4.83860717 24.0789428,4.83860717 C22.8475546,4.83860717 22.1070087,5.43288868 22.1070087,7.26712341 C22.1070087,9.10201699 22.8475546,9.6949808 24.0789428,9.6949808 C25.2022798,9.6949808 26.7334441,9.20018544 28.4859816,8.70802548 C30.2385191,8.21520666 32.2124297,7.71975246 34.2159886,7.71975246 C35.0579972,7.71975246 35.9059355,7.80672048 36.7466264,8.01952861 C39.2304859,8.64016406 41.4132516,12.3652945 44.2351005,14.4551625 C45.0244012,14.2087531 45.8538917,14.0783011 46.6985357,14.0783011 C48.1499794,14.0783011 49.5032546,14.4551625 50.6885233,15.1133524 C53.385191,13.9695911 56.3177265,11.8955354 59.0697374,11.8955354 C59.2199549,11.8955354 59.3668782,11.901465 59.5124837,11.9139832 C60.8492877,12.0273051 62.1854328,12.8357125 63.5393669,13.8147616 C64.5737593,12.6683649 65.8163479,11.6873392 67.2098129,10.9546995 C67.5102479,10.804482 67.8113417,10.6536056 68.1315422,10.5205182 C62.5049744,4.44461566 51.4336812,-0.370250508 44.3293159,0.0224233063 M68.1315422,10.5224947 L68.1315422,10.5224947 C67.8113417,10.6536056 67.5102479,10.8031643 67.2098129,10.9546995 C65.8163479,11.6873392 64.5737593,12.6663884 63.5393669,13.8127851 C63.2389319,14.1343032 62.9753924,14.4722926 62.7131706,14.8307063 C60.7359657,17.5398921 58.7791851,18.6493932 56.9548331,18.6493932 C55.3920441,18.6493932 53.9247881,17.8409859 52.6084084,16.5239474 C52.0444339,15.9593141 51.4033742,15.4902138 50.6885233,15.1133524 C49.5032546,14.4538448 48.1499794,14.0769834 46.6985357,14.0769834 C45.8538917,14.0769834 45.0244012,14.2087531 44.2351005,14.4538448 C40.8301705,15.5073439 38.3449933,18.6869476 38.3449933,22.4338201 C38.3449933,25.1430058 39.6442429,27.5510978 41.6372601,29.0559082 C44.2159939,26.1391851 47.9971265,24.2957264 52.2124403,24.2957264 C55.8637797,24.2957264 59.1744944,25.6707436 61.6959083,27.9266415 C64.0064906,30.0026737 66.2050686,31.1662005 68.4741435,31.1662005 C70.5666469,31.1662005 72.7191056,30.1779275 75.0744896,28.0024091 C74.6396495,24.332622 73.8503487,20.7392613 72.6097367,17.5972119 C71.9330991,15.8644399 71.1036086,14.2851796 70.1061117,12.9114801 C69.5052417,12.0833073 68.8457342,11.2748999 68.1315422,10.5224947 M52.2130992,24.2957264 C47.9977853,24.2957264 44.2166527,26.1405027 41.637919,29.0559082 C41.3183774,29.3945564 41.0179424,29.7509935 40.7550618,30.127855 C38.590085,33.1012391 36.4448737,34.3240622 34.4327498,34.3240622 C32.7197432,34.3240622 31.1002932,33.4201218 29.6705915,31.9904202 C28.0149048,30.3347335 25.7379238,29.3194476 23.1987209,29.3194476 C18.1552343,29.3194476 14.0545601,33.4003564 14.0545601,38.4629496 C14.0545601,43.5064363 18.1552343,47.6084282 23.1987209,47.6084282 C23.5742647,47.6084282 23.9313607,47.5899804 24.2904332,47.5530849 L24.3082221,47.5326606 C26.3980901,47.2888866 28.2593377,46.3473918 29.6705915,44.9354791 C30.9322868,43.6751016 32.3237752,42.8482465 33.79169,42.6407091 L33.8107967,42.6407091 C34.0176751,42.6216025 34.2436602,42.6031548 34.4511976,42.6031548 C36.4448737,42.6031548 38.590085,43.8272956 40.7550618,46.8000209 C42.0332282,48.5677119 43.7271282,50.0349679 45.6845676,51.0515714 C47.6406893,52.0661984 49.8616682,52.6328082 52.2130992,52.6328082 C55.8631209,52.6328082 59.1738355,51.257791 61.6965671,49.0005755 C64.0104437,46.9317906 66.1932094,45.7636519 68.4701904,45.7636519 C70.3894166,45.7636519 72.4898262,47.0859612 74.6172486,48.8734177 C75.1818819,45.9573534 75.355818,42.9615684 75.4302679,42.0385214 C75.5066943,40.8156983 75.5626965,39.5171075 75.5818031,38.1809624 C75.6002508,37.2038898 75.6002508,36.166862 75.5818031,35.1324696 C75.5258009,32.818593 75.3749246,30.3920533 75.0744896,28.0024091 C72.7184467,30.1766098 70.5659881,31.1648828 68.4754612,31.1648828 C66.2057275,31.1648828 64.0071494,30.0026737 61.6965671,27.924665 C59.1738355,25.6687671 55.8631209,24.2957264 52.2130992,24.2957264 M40.3017739,102.646012 C39.7015627,102.646012 39.1158462,102.683566 38.5327652,102.777781 C35.7682361,103.115771 33.2659288,104.283251 31.2702761,106.014046 L31.2511695,106.014046 C30.4789989,106.70979 29.764148,107.481961 29.1639369,108.30684 C28.7113079,108.929452 28.2593377,109.475637 27.7895785,109.946055 C26.1701285,111.659062 24.5724204,112.373254 23.0293968,112.373254 C21.3737101,112.373254 19.7924732,111.508185 18.3996671,110.117356 C17.3092726,109.041456 15.9349142,108.233707 14.4109972,107.838398 C14.3227115,107.891106 14.2331081,107.946449 14.1428458,107.999157 C12.9562593,108.694243 11.5733359,109.331349 9.97101595,109.953961 C9.89524835,109.983609 9.82079845,110.010622 9.74503085,110.04027 C8.56569171,110.490923 7.37119905,110.934328 6.17472985,111.375757 C4.86559751,111.857375 3.79430956,112.921416 3.50375729,114.287868 L3.49914535,114.310928 C3.32916239,114.969776 3.23560588,115.685286 3.23560588,116.400796 C3.23560588,121.311195 7.20451034,125.300524 12.1155684,125.300524 C13.0366389,125.300524 13.9405793,125.148988 14.7680932,124.905214 C16.1628759,124.451268 17.3837225,123.699521 18.3996671,122.684235 C19.7924732,121.293406 21.3737101,120.425043 23.0293968,120.425043 C23.9504673,120.425043 24.9104098,120.688583 25.8888001,121.272982 C26.9614058,121.933148 28.0537769,122.96754 29.1639369,124.491457 C29.4452653,124.868319 29.7272525,125.243863 30.0467941,125.581193 C31.157613,126.823123 32.4746515,127.858833 33.9432252,128.629686 C35.842686,129.608735 38.0076628,130.17271 40.3017739,130.17271 C43.8397913,130.17271 47.0576082,128.836564 49.5045723,126.634692 C51.7407047,124.622568 53.8694448,123.495278 56.0884471,123.495278 C58.5900956,123.495278 61.2057248,124.941451 64.1422134,128.234377 C65.7596869,130.042258 67.736233,131.508196 69.9743419,132.524799 C70.313649,132.673699 70.6516384,132.825893 70.9916043,132.937898 C72.9470672,133.69162 75.0929374,134.106036 77.3145751,134.106036 C79.4011489,134.106036 81.4152493,133.749599 83.2593668,133.069008 C84.1250939,132.769232 84.9526079,132.393689 85.7432263,131.959507 C87.5300239,131.000882 89.1106019,129.739846 90.4658536,128.234377 C93.4201311,124.941451 96.0159949,123.495278 98.53675,123.495278 C98.6882852,123.495278 98.858927,123.495278 99.007168,123.531515 C99.516458,123.550622 99.111266,123.311459 99.6185795,123.480784 L100.032337,123.480784 C99.7134537,123.254798 99.8926606,123.341766 99.5546712,123.117099 C98.9524835,122.663811 98.3114237,122.252031 97.6907883,121.875169 C94.1916429,119.598847 90.4843014,117.773836 86.7209577,116.191282 C82.074098,114.196947 77.332364,112.562343 72.7968497,110.867784 C72.0635511,110.603586 71.3302525,110.32094 70.5962951,110.04027 C67.9062159,109.00456 65.7234503,107.161761 64.0664458,104.81033 C64.0295503,104.789905 64.0104437,104.75301 64.0104437,104.715455 L63.5077421,104.100091 C60.6305499,107.253999 58.5433173,109.316855 56.0805409,109.316855 C53.8733979,109.316855 51.7360927,108.182317 49.5045723,106.162946 C49.4281458,106.088496 49.3517194,106.031835 49.257504,105.975174 C46.8507298,103.90573 43.7271282,102.646012 40.3017739,102.646012 M27.0938343,17.8844699 C25.6555677,17.8844699 24.3886017,18.5690137 23.5558169,19.6119712 L23.5894182,19.6225127 C22.0944905,21.4824426 20.311646,22.0536644 18.7817994,22.0536644 C17.398876,22.0536644 16.1964771,21.5522805 15.5224749,21.0113658 L15.5560762,21.0298135 C15.2431231,20.7768156 14.8175069,20.6074915 14.3833256,20.6074915 C13.3792402,20.6074915 12.5662209,21.423805 12.5662209,22.4272316 C12.5662209,23.431317 13.3792402,24.2443362 14.3833256,24.2443362 C14.8175069,24.2443362 15.2114984,24.0862126 15.5224749,23.8332147 L15.6390912,23.7633767 C16.310458,23.2218031 17.398876,22.8001399 18.7817994,22.8001399 C20.311646,22.8001399 22.0608893,23.4155046 23.5558169,25.2734579 L23.2573585,24.8392766 C24.0894844,25.8848695 25.6555677,26.9693344 27.0938343,26.9693344 C29.603389,26.9693344 31.636596,24.9348097 31.636596,22.4272316 C31.636596,19.9189946 29.603389,17.8844699 27.0938343,17.8844699" id="Stroke-7"></path>
                <path d="M4.68573182,43.0669842 C7.27368945,43.0669842 9.3708048,40.9711866 9.3708048,38.383229 C9.3708048,35.7952713 7.27368945,33.6955206 4.68573182,33.6955206 C2.09711535,33.6955206 0,35.7952713 0,38.383229 C0,40.9711866 2.09711535,43.0669842 4.68573182,43.0669842 Z" id="Stroke-8"></path>
            </g>
        </g>
    </g>
</svg>